<svg height="3760" preserveAspectRatio="xMinYMim meet" viewBox="0 0 3910 3760" width="3910" xmlns="http://www.w3.org/2000/svg" xmlns:xlink="http://www.w3.org/1999/xlink">
<defs>
<style>

path{
    fill: green;
    stroke : black;
    stroke-width: 1;
    stroke-opacity : 1.0;
    fill-opacity : 0.5;
}

polygon{
    fill : green;
    stroke : blue;
    stroke-width : 1;
    stroke-opacity : 1.0;
    fill-opacity : 0.5;
}

rect{
    fill : white;
    stroke : black;
    stroke-width : 1;
    stroke-opacity : 1.0;
    fill-opacity : 0.5;
}

text{
    font-family: 'Microsoft YaHei Black', sans-serif;
    font-size : 10px;
    text-anchor : middle;
    fill : black;
    font-weight : normal;
    transform: translateY(0.3em);
}

.project{
    fill: url(#gradient_blue);
    fill-opacity : 1;
    rx:2px;
    ry:2px;
}

.project-text{
    font-family: 'Microsoft YaHei Black', sans-serif;
    font-size: 12px;
    text-anchor: middle;
    fill: white;
}

</style>
</defs>
<defs>
<linearGradient id="gradient_blue" x1="0%" x2="100%" y1="0%" y2="100%">
<stop offset="0%" style="stop-color:#6083CB;stop-opacity:1"/>
<stop offset="0%" style="stop-color:#3E70CA;stop-opacity:1"/>
<stop offset="100%" style="stop-color:#2E61BA;stop-opacity:1"/>
</linearGradient>
<linearGradient id="gradient_rainbow" x1="0%" x2="100%" y1="0%" y2="0%">
<stop offset="0%" stop-color="red"/>
<stop offset="14%" stop-color="orange"/>
<stop offset="28%" stop-color="yellow"/>
<stop offset="42%" stop-color="green"/>
<stop offset="56%" stop-color="blue"/>
<stop offset="70%" stop-color="indigo"/>
<stop offset="84%" stop-color="violet"/>
<stop offset="100%" stop-color="red"/>
</linearGradient>
<radialGradient cx="50%" cy="50%" fx="50%" fy="50%" id="gradient2" r="50%">
<stop offset="0%" style="stop-color:rgb(0,0,255);stop-opacity:1"/>
<stop offset="100%" style="stop-color:rgb(0,255,0);stop-opacity:1"/>
</radialGradient>
</defs>
<rect height="40" width="1240" x="90" y="10"/>
<text x="710" y="30">
Jul
</text>
<rect height="40" width="1240" x="1330" y="10"/>
<text x="1950" y="30">
Aug
</text>
<rect height="40" width="1200" x="2570" y="10"/>
<text x="3170" y="30">
Sep
</text>
<rect height="40" width="40" x="3770" y="10"/>
<text x="3790" y="30">
Oct
</text>
<rect height="40" width="40" x="90" y="50"/>
<text x="110" y="70">
01
</text>
<rect height="40" width="40" x="130" y="50"/>
<text x="150" y="70">
02
</text>
<rect height="40" width="40" x="170" y="50"/>
<text x="190" y="70">
03
</text>
<rect height="40" width="40" x="210" y="50"/>
<text x="230" y="70">
04
</text>
<rect height="40" width="40" x="250" y="50"/>
<text x="270" y="70">
05
</text>
<rect height="40" width="40" x="290" y="50"/>
<text x="310" y="70">
06
</text>
<rect height="40" width="40" x="330" y="50"/>
<text x="350" y="70">
07
</text>
<rect height="40" width="40" x="370" y="50"/>
<text x="390" y="70">
08
</text>
<rect height="40" width="40" x="410" y="50"/>
<text x="430" y="70">
09
</text>
<rect height="40" width="40" x="450" y="50"/>
<text x="470" y="70">
10
</text>
<rect height="40" width="40" x="490" y="50"/>
<text x="510" y="70">
11
</text>
<rect height="40" width="40" x="530" y="50"/>
<text x="550" y="70">
12
</text>
<rect height="40" width="40" x="570" y="50"/>
<text x="590" y="70">
13
</text>
<rect height="40" width="40" x="610" y="50"/>
<text x="630" y="70">
14
</text>
<rect height="40" width="40" x="650" y="50"/>
<text x="670" y="70">
15
</text>
<rect height="40" width="40" x="690" y="50"/>
<text x="710" y="70">
16
</text>
<rect height="40" width="40" x="730" y="50"/>
<text x="750" y="70">
17
</text>
<rect height="40" width="40" x="770" y="50"/>
<text x="790" y="70">
18
</text>
<rect height="40" width="40" x="810" y="50"/>
<text x="830" y="70">
19
</text>
<rect height="40" width="40" x="850" y="50"/>
<text x="870" y="70">
20
</text>
<rect height="40" width="40" x="890" y="50"/>
<text x="910" y="70">
21
</text>
<rect height="40" width="40" x="930" y="50"/>
<text x="950" y="70">
22
</text>
<rect height="40" width="40" x="970" y="50"/>
<text x="990" y="70">
23
</text>
<rect height="40" width="40" x="1010" y="50"/>
<text x="1030" y="70">
24
</text>
<rect height="40" width="40" x="1050" y="50"/>
<text x="1070" y="70">
25
</text>
<rect height="40" width="40" x="1090" y="50"/>
<text x="1110" y="70">
26
</text>
<rect height="40" width="40" x="1130" y="50"/>
<text x="1150" y="70">
27
</text>
<rect height="40" width="40" x="1170" y="50"/>
<text x="1190" y="70">
28
</text>
<rect height="40" width="40" x="1210" y="50"/>
<text x="1230" y="70">
29
</text>
<rect height="40" width="40" x="1250" y="50"/>
<text x="1270" y="70">
30
</text>
<rect height="40" width="40" x="1290" y="50"/>
<text x="1310" y="70">
31
</text>
<rect height="40" width="40" x="1330" y="50"/>
<text x="1350" y="70">
01
</text>
<rect height="40" width="40" x="1370" y="50"/>
<text x="1390" y="70">
02
</text>
<rect height="40" width="40" x="1410" y="50"/>
<text x="1430" y="70">
03
</text>
<rect height="40" width="40" x="1450" y="50"/>
<text x="1470" y="70">
04
</text>
<rect height="40" width="40" x="1490" y="50"/>
<text x="1510" y="70">
05
</text>
<rect height="40" width="40" x="1530" y="50"/>
<text x="1550" y="70">
06
</text>
<rect height="40" width="40" x="1570" y="50"/>
<text x="1590" y="70">
07
</text>
<rect height="40" width="40" x="1610" y="50"/>
<text x="1630" y="70">
08
</text>
<rect height="40" width="40" x="1650" y="50"/>
<text x="1670" y="70">
09
</text>
<rect height="40" width="40" x="1690" y="50"/>
<text x="1710" y="70">
10
</text>
<rect height="40" width="40" x="1730" y="50"/>
<text x="1750" y="70">
11
</text>
<rect height="40" width="40" x="1770" y="50"/>
<text x="1790" y="70">
12
</text>
<rect height="40" width="40" x="1810" y="50"/>
<text x="1830" y="70">
13
</text>
<rect height="40" width="40" x="1850" y="50"/>
<text x="1870" y="70">
14
</text>
<rect height="40" width="40" x="1890" y="50"/>
<text x="1910" y="70">
15
</text>
<rect height="40" width="40" x="1930" y="50"/>
<text x="1950" y="70">
16
</text>
<rect height="40" width="40" x="1970" y="50"/>
<text x="1990" y="70">
17
</text>
<rect height="40" width="40" x="2010" y="50"/>
<text x="2030" y="70">
18
</text>
<rect height="40" width="40" x="2050" y="50"/>
<text x="2070" y="70">
19
</text>
<rect height="40" width="40" x="2090" y="50"/>
<text x="2110" y="70">
20
</text>
<rect height="40" width="40" x="2130" y="50"/>
<text x="2150" y="70">
21
</text>
<rect height="40" width="40" x="2170" y="50"/>
<text x="2190" y="70">
22
</text>
<rect height="40" width="40" x="2210" y="50"/>
<text x="2230" y="70">
23
</text>
<rect height="40" width="40" x="2250" y="50"/>
<text x="2270" y="70">
24
</text>
<rect height="40" width="40" x="2290" y="50"/>
<text x="2310" y="70">
25
</text>
<rect height="40" width="40" x="2330" y="50"/>
<text x="2350" y="70">
26
</text>
<rect height="40" width="40" x="2370" y="50"/>
<text x="2390" y="70">
27
</text>
<rect height="40" width="40" x="2410" y="50"/>
<text x="2430" y="70">
28
</text>
<rect height="40" width="40" x="2450" y="50"/>
<text x="2470" y="70">
29
</text>
<rect height="40" width="40" x="2490" y="50"/>
<text x="2510" y="70">
30
</text>
<rect height="40" width="40" x="2530" y="50"/>
<text x="2550" y="70">
31
</text>
<rect height="40" width="40" x="2570" y="50"/>
<text x="2590" y="70">
01
</text>
<rect height="40" width="40" x="2610" y="50"/>
<text x="2630" y="70">
02
</text>
<rect height="40" width="40" x="2650" y="50"/>
<text x="2670" y="70">
03
</text>
<rect height="40" width="40" x="2690" y="50"/>
<text x="2710" y="70">
04
</text>
<rect height="40" width="40" x="2730" y="50"/>
<text x="2750" y="70">
05
</text>
<rect height="40" width="40" x="2770" y="50"/>
<text x="2790" y="70">
06
</text>
<rect height="40" width="40" x="2810" y="50"/>
<text x="2830" y="70">
07
</text>
<rect height="40" width="40" x="2850" y="50"/>
<text x="2870" y="70">
08
</text>
<rect height="40" width="40" x="2890" y="50"/>
<text x="2910" y="70">
09
</text>
<rect height="40" width="40" x="2930" y="50"/>
<text x="2950" y="70">
10
</text>
<rect height="40" width="40" x="2970" y="50"/>
<text x="2990" y="70">
11
</text>
<rect height="40" width="40" x="3010" y="50"/>
<text x="3030" y="70">
12
</text>
<rect height="40" width="40" x="3050" y="50"/>
<text x="3070" y="70">
13
</text>
<rect height="40" width="40" x="3090" y="50"/>
<text x="3110" y="70">
14
</text>
<rect height="40" width="40" x="3130" y="50"/>
<text x="3150" y="70">
15
</text>
<rect height="40" width="40" x="3170" y="50"/>
<text x="3190" y="70">
16
</text>
<rect height="40" width="40" x="3210" y="50"/>
<text x="3230" y="70">
17
</text>
<rect height="40" width="40" x="3250" y="50"/>
<text x="3270" y="70">
18
</text>
<rect height="40" width="40" x="3290" y="50"/>
<text x="3310" y="70">
19
</text>
<rect height="40" width="40" x="3330" y="50"/>
<text x="3350" y="70">
20
</text>
<rect height="40" width="40" x="3370" y="50"/>
<text x="3390" y="70">
21
</text>
<rect height="40" width="40" x="3410" y="50"/>
<text x="3430" y="70">
22
</text>
<rect height="40" width="40" x="3450" y="50"/>
<text x="3470" y="70">
23
</text>
<rect height="40" width="40" x="3490" y="50"/>
<text x="3510" y="70">
24
</text>
<rect height="40" width="40" x="3530" y="50"/>
<text x="3550" y="70">
25
</text>
<rect height="40" width="40" x="3570" y="50"/>
<text x="3590" y="70">
26
</text>
<rect height="40" width="40" x="3610" y="50"/>
<text x="3630" y="70">
27
</text>
<rect height="40" width="40" x="3650" y="50"/>
<text x="3670" y="70">
28
</text>
<rect height="40" width="40" x="3690" y="50"/>
<text x="3710" y="70">
29
</text>
<rect height="40" width="40" x="3730" y="50"/>
<text x="3750" y="70">
30
</text>
<rect height="40" width="40" x="3770" y="50"/>
<text x="3790" y="70">
01
</text>
<rect height="120" width="40" x="10" y="90"/>
<text x="30" y="150">
CPU 64
</text>
<rect height="120" width="40" x="10" y="220"/>
<text x="30" y="280">
GPU 64
</text>
<rect height="120" width="40" x="10" y="350"/>
<text x="30" y="410">
GPU 64
</text>
<rect height="480" width="40" x="10" y="480"/>
<text x="30" y="720">
CPU 
</text>
<rect height="480" width="40" x="10" y="970"/>
<text x="30" y="1210">
CPU 
</text>
<rect height="480" width="40" x="10" y="1460"/>
<text x="30" y="1700">
CPU 
</text>
<rect height="480" width="40" x="10" y="1950"/>
<text x="30" y="2190">
CPU 
</text>
<rect height="480" width="40" x="10" y="2440"/>
<text x="30" y="2680">
CPU 
</text>
<rect height="480" width="40" x="10" y="2930"/>
<text x="30" y="3170">
CPU 
</text>
<rect height="240" width="40" x="10" y="3420"/>
<text x="30" y="3540">
CPU 
</text>
<rect height="30" width="40" x="50" y="90"/>
<text x="70" y="105">
F283
</text>
<rect height="30" width="40" x="50" y="120"/>
<text x="70" y="135">
F284
</text>
<rect height="30" width="40" x="50" y="150"/>
<text x="70" y="165">
F285
</text>
<rect height="30" width="40" x="50" y="180"/>
<text x="70" y="195">
F286
</text>
<rect height="30" width="40" x="50" y="220"/>
<text x="70" y="235">
F319
</text>
<rect height="30" width="40" x="50" y="250"/>
<text x="70" y="265">
F320
</text>
<rect height="30" width="40" x="50" y="280"/>
<text x="70" y="295">
F321
</text>
<rect height="30" width="40" x="50" y="310"/>
<text x="70" y="325">
F322
</text>
<rect height="30" width="40" x="50" y="350"/>
<text x="70" y="365">
F413
</text>
<rect height="30" width="40" x="50" y="380"/>
<text x="70" y="395">
F414
</text>
<rect height="30" width="40" x="50" y="410"/>
<text x="70" y="425">
F415
</text>
<rect height="30" width="40" x="50" y="440"/>
<text x="70" y="455">
F416
</text>
<rect height="30" width="40" x="50" y="480"/>
<text x="70" y="495">
F303
</text>
<rect height="30" width="40" x="50" y="510"/>
<text x="70" y="525">
F304
</text>
<rect height="30" width="40" x="50" y="540"/>
<text x="70" y="555">
F305
</text>
<rect height="30" width="40" x="50" y="570"/>
<text x="70" y="585">
F306
</text>
<rect height="30" width="40" x="50" y="600"/>
<text x="70" y="615">
F307
</text>
<rect height="30" width="40" x="50" y="630"/>
<text x="70" y="645">
F308
</text>
<rect height="30" width="40" x="50" y="660"/>
<text x="70" y="675">
F309
</text>
<rect height="30" width="40" x="50" y="690"/>
<text x="70" y="705">
F310
</text>
<rect height="30" width="40" x="50" y="720"/>
<text x="70" y="735">
F311
</text>
<rect height="30" width="40" x="50" y="750"/>
<text x="70" y="765">
F312
</text>
<rect height="30" width="40" x="50" y="780"/>
<text x="70" y="795">
F313
</text>
<rect height="30" width="40" x="50" y="810"/>
<text x="70" y="825">
F314
</text>
<rect height="30" width="40" x="50" y="840"/>
<text x="70" y="855">
F315
</text>
<rect height="30" width="40" x="50" y="870"/>
<text x="70" y="885">
F316
</text>
<rect height="30" width="40" x="50" y="900"/>
<text x="70" y="915">
F317
</text>
<rect height="30" width="40" x="50" y="930"/>
<text x="70" y="945">
F318
</text>
<rect height="30" width="40" x="50" y="970"/>
<text x="70" y="985">
F324
</text>
<rect height="30" width="40" x="50" y="1000"/>
<text x="70" y="1015">
F325
</text>
<rect height="30" width="40" x="50" y="1030"/>
<text x="70" y="1045">
F326
</text>
<rect height="30" width="40" x="50" y="1060"/>
<text x="70" y="1075">
F327
</text>
<rect height="30" width="40" x="50" y="1090"/>
<text x="70" y="1105">
F328
</text>
<rect height="30" width="40" x="50" y="1120"/>
<text x="70" y="1135">
F329
</text>
<rect height="30" width="40" x="50" y="1150"/>
<text x="70" y="1165">
F330
</text>
<rect height="30" width="40" x="50" y="1180"/>
<text x="70" y="1195">
F331
</text>
<rect height="30" width="40" x="50" y="1210"/>
<text x="70" y="1225">
F332
</text>
<rect height="30" width="40" x="50" y="1240"/>
<text x="70" y="1255">
F333
</text>
<rect height="30" width="40" x="50" y="1270"/>
<text x="70" y="1285">
F334
</text>
<rect height="30" width="40" x="50" y="1300"/>
<text x="70" y="1315">
F335
</text>
<rect height="30" width="40" x="50" y="1330"/>
<text x="70" y="1345">
F336
</text>
<rect height="30" width="40" x="50" y="1360"/>
<text x="70" y="1375">
F337
</text>
<rect height="30" width="40" x="50" y="1390"/>
<text x="70" y="1405">
F338
</text>
<rect height="30" width="40" x="50" y="1420"/>
<text x="70" y="1435">
F339
</text>
<rect height="30" width="40" x="50" y="1460"/>
<text x="70" y="1475">
F340
</text>
<rect height="30" width="40" x="50" y="1490"/>
<text x="70" y="1505">
F341
</text>
<rect height="30" width="40" x="50" y="1520"/>
<text x="70" y="1535">
F342
</text>
<rect height="30" width="40" x="50" y="1550"/>
<text x="70" y="1565">
F343
</text>
<rect height="30" width="40" x="50" y="1580"/>
<text x="70" y="1595">
F344
</text>
<rect height="30" width="40" x="50" y="1610"/>
<text x="70" y="1625">
F345
</text>
<rect height="30" width="40" x="50" y="1640"/>
<text x="70" y="1655">
F346
</text>
<rect height="30" width="40" x="50" y="1670"/>
<text x="70" y="1685">
F347
</text>
<rect height="30" width="40" x="50" y="1700"/>
<text x="70" y="1715">
F348
</text>
<rect height="30" width="40" x="50" y="1730"/>
<text x="70" y="1745">
F349
</text>
<rect height="30" width="40" x="50" y="1760"/>
<text x="70" y="1775">
F350
</text>
<rect height="30" width="40" x="50" y="1790"/>
<text x="70" y="1805">
F351
</text>
<rect height="30" width="40" x="50" y="1820"/>
<text x="70" y="1835">
F352
</text>
<rect height="30" width="40" x="50" y="1850"/>
<text x="70" y="1865">
F353
</text>
<rect height="30" width="40" x="50" y="1880"/>
<text x="70" y="1895">
F354
</text>
<rect height="30" width="40" x="50" y="1910"/>
<text x="70" y="1925">
F355
</text>
<rect height="30" width="40" x="50" y="1950"/>
<text x="70" y="1965">
F356
</text>
<rect height="30" width="40" x="50" y="1980"/>
<text x="70" y="1995">
F357
</text>
<rect height="30" width="40" x="50" y="2010"/>
<text x="70" y="2025">
F358
</text>
<rect height="30" width="40" x="50" y="2040"/>
<text x="70" y="2055">
F359
</text>
<rect height="30" width="40" x="50" y="2070"/>
<text x="70" y="2085">
F360
</text>
<rect height="30" width="40" x="50" y="2100"/>
<text x="70" y="2115">
F361
</text>
<rect height="30" width="40" x="50" y="2130"/>
<text x="70" y="2145">
F362
</text>
<rect height="30" width="40" x="50" y="2160"/>
<text x="70" y="2175">
F363
</text>
<rect height="30" width="40" x="50" y="2190"/>
<text x="70" y="2205">
F364
</text>
<rect height="30" width="40" x="50" y="2220"/>
<text x="70" y="2235">
F365
</text>
<rect height="30" width="40" x="50" y="2250"/>
<text x="70" y="2265">
F366
</text>
<rect height="30" width="40" x="50" y="2280"/>
<text x="70" y="2295">
F367
</text>
<rect height="30" width="40" x="50" y="2310"/>
<text x="70" y="2325">
F368
</text>
<rect height="30" width="40" x="50" y="2340"/>
<text x="70" y="2355">
F369
</text>
<rect height="30" width="40" x="50" y="2370"/>
<text x="70" y="2385">
F370
</text>
<rect height="30" width="40" x="50" y="2400"/>
<text x="70" y="2415">
F371
</text>
<rect height="30" width="40" x="50" y="2440"/>
<text x="70" y="2455">
F373
</text>
<rect height="30" width="40" x="50" y="2470"/>
<text x="70" y="2485">
F374
</text>
<rect height="30" width="40" x="50" y="2500"/>
<text x="70" y="2515">
F375
</text>
<rect height="30" width="40" x="50" y="2530"/>
<text x="70" y="2545">
F376
</text>
<rect height="30" width="40" x="50" y="2560"/>
<text x="70" y="2575">
F377
</text>
<rect height="30" width="40" x="50" y="2590"/>
<text x="70" y="2605">
F378
</text>
<rect height="30" width="40" x="50" y="2620"/>
<text x="70" y="2635">
F379
</text>
<rect height="30" width="40" x="50" y="2650"/>
<text x="70" y="2665">
F380
</text>
<rect height="30" width="40" x="50" y="2680"/>
<text x="70" y="2695">
F381
</text>
<rect height="30" width="40" x="50" y="2710"/>
<text x="70" y="2725">
F382
</text>
<rect height="30" width="40" x="50" y="2740"/>
<text x="70" y="2755">
F383
</text>
<rect height="30" width="40" x="50" y="2770"/>
<text x="70" y="2785">
F384
</text>
<rect height="30" width="40" x="50" y="2800"/>
<text x="70" y="2815">
F385
</text>
<rect height="30" width="40" x="50" y="2830"/>
<text x="70" y="2845">
F386
</text>
<rect height="30" width="40" x="50" y="2860"/>
<text x="70" y="2875">
F387
</text>
<rect height="30" width="40" x="50" y="2890"/>
<text x="70" y="2905">
F388
</text>
<rect height="30" width="40" x="50" y="2930"/>
<text x="70" y="2945">
F389
</text>
<rect height="30" width="40" x="50" y="2960"/>
<text x="70" y="2975">
F390
</text>
<rect height="30" width="40" x="50" y="2990"/>
<text x="70" y="3005">
F391
</text>
<rect height="30" width="40" x="50" y="3020"/>
<text x="70" y="3035">
F392
</text>
<rect height="30" width="40" x="50" y="3050"/>
<text x="70" y="3065">
F393
</text>
<rect height="30" width="40" x="50" y="3080"/>
<text x="70" y="3095">
F394
</text>
<rect height="30" width="40" x="50" y="3110"/>
<text x="70" y="3125">
F395
</text>
<rect height="30" width="40" x="50" y="3140"/>
<text x="70" y="3155">
F396
</text>
<rect height="30" width="40" x="50" y="3170"/>
<text x="70" y="3185">
F397
</text>
<rect height="30" width="40" x="50" y="3200"/>
<text x="70" y="3215">
F398
</text>
<rect height="30" width="40" x="50" y="3230"/>
<text x="70" y="3245">
F399
</text>
<rect height="30" width="40" x="50" y="3260"/>
<text x="70" y="3275">
F400
</text>
<rect height="30" width="40" x="50" y="3290"/>
<text x="70" y="3305">
F401
</text>
<rect height="30" width="40" x="50" y="3320"/>
<text x="70" y="3335">
F402
</text>
<rect height="30" width="40" x="50" y="3350"/>
<text x="70" y="3365">
F403
</text>
<rect height="30" width="40" x="50" y="3380"/>
<text x="70" y="3395">
F404
</text>
<rect height="30" width="40" x="50" y="3420"/>
<text x="70" y="3435">
F405
</text>
<rect height="30" width="40" x="50" y="3450"/>
<text x="70" y="3465">
F406
</text>
<rect height="30" width="40" x="50" y="3480"/>
<text x="70" y="3495">
F407
</text>
<rect height="30" width="40" x="50" y="3510"/>
<text x="70" y="3525">
F408
</text>
<rect height="30" width="40" x="50" y="3540"/>
<text x="70" y="3555">
F409
</text>
<rect height="30" width="40" x="50" y="3570"/>
<text x="70" y="3585">
F410
</text>
<rect height="30" width="40" x="50" y="3600"/>
<text x="70" y="3615">
F411
</text>
<rect height="30" width="40" x="50" y="3630"/>
<text x="70" y="3645">
F412
</text>
<path d="M90,90 H3810 V210 H90 V90 Z  M130,90 V210  M170,90 V210  M210,90 V210  M250,90 V210  M290,90 V210  M330,90 V210  M370,90 V210  M410,90 V210  M450,90 V210  M490,90 V210  M530,90 V210  M570,90 V210  M610,90 V210  M650,90 V210  M690,90 V210  M730,90 V210  M770,90 V210  M810,90 V210  M850,90 V210  M890,90 V210  M930,90 V210  M970,90 V210  M1010,90 V210  M1050,90 V210  M1090,90 V210  M1130,90 V210  M1170,90 V210  M1210,90 V210  M1250,90 V210  M1290,90 V210  M1330,90 V210  M1370,90 V210  M1410,90 V210  M1450,90 V210  M1490,90 V210  M1530,90 V210  M1570,90 V210  M1610,90 V210  M1650,90 V210  M1690,90 V210  M1730,90 V210  M1770,90 V210  M1810,90 V210  M1850,90 V210  M1890,90 V210  M1930,90 V210  M1970,90 V210  M2010,90 V210  M2050,90 V210  M2090,90 V210  M2130,90 V210  M2170,90 V210  M2210,90 V210  M2250,90 V210  M2290,90 V210  M2330,90 V210  M2370,90 V210  M2410,90 V210  M2450,90 V210  M2490,90 V210  M2530,90 V210  M2570,90 V210  M2610,90 V210  M2650,90 V210  M2690,90 V210  M2730,90 V210  M2770,90 V210  M2810,90 V210  M2850,90 V210  M2890,90 V210  M2930,90 V210  M2970,90 V210  M3010,90 V210  M3050,90 V210  M3090,90 V210  M3130,90 V210  M3170,90 V210  M3210,90 V210  M3250,90 V210  M3290,90 V210  M3330,90 V210  M3370,90 V210  M3410,90 V210  M3450,90 V210  M3490,90 V210  M3530,90 V210  M3570,90 V210  M3610,90 V210  M3650,90 V210  M3690,90 V210  M3730,90 V210  M3770,90 V210  M90,120 H3810  M90,150 H3810  M90,180 H3810  "/>
<path d="M90,220 H3810 V340 H90 V220 Z  M130,220 V340  M170,220 V340  M210,220 V340  M250,220 V340  M290,220 V340  M330,220 V340  M370,220 V340  M410,220 V340  M450,220 V340  M490,220 V340  M530,220 V340  M570,220 V340  M610,220 V340  M650,220 V340  M690,220 V340  M730,220 V340  M770,220 V340  M810,220 V340  M850,220 V340  M890,220 V340  M930,220 V340  M970,220 V340  M1010,220 V340  M1050,220 V340  M1090,220 V340  M1130,220 V340  M1170,220 V340  M1210,220 V340  M1250,220 V340  M1290,220 V340  M1330,220 V340  M1370,220 V340  M1410,220 V340  M1450,220 V340  M1490,220 V340  M1530,220 V340  M1570,220 V340  M1610,220 V340  M1650,220 V340  M1690,220 V340  M1730,220 V340  M1770,220 V340  M1810,220 V340  M1850,220 V340  M1890,220 V340  M1930,220 V340  M1970,220 V340  M2010,220 V340  M2050,220 V340  M2090,220 V340  M2130,220 V340  M2170,220 V340  M2210,220 V340  M2250,220 V340  M2290,220 V340  M2330,220 V340  M2370,220 V340  M2410,220 V340  M2450,220 V340  M2490,220 V340  M2530,220 V340  M2570,220 V340  M2610,220 V340  M2650,220 V340  M2690,220 V340  M2730,220 V340  M2770,220 V340  M2810,220 V340  M2850,220 V340  M2890,220 V340  M2930,220 V340  M2970,220 V340  M3010,220 V340  M3050,220 V340  M3090,220 V340  M3130,220 V340  M3170,220 V340  M3210,220 V340  M3250,220 V340  M3290,220 V340  M3330,220 V340  M3370,220 V340  M3410,220 V340  M3450,220 V340  M3490,220 V340  M3530,220 V340  M3570,220 V340  M3610,220 V340  M3650,220 V340  M3690,220 V340  M3730,220 V340  M3770,220 V340  M90,250 H3810  M90,280 H3810  M90,310 H3810  "/>
<path d="M90,350 H3810 V470 H90 V350 Z  M130,350 V470  M170,350 V470  M210,350 V470  M250,350 V470  M290,350 V470  M330,350 V470  M370,350 V470  M410,350 V470  M450,350 V470  M490,350 V470  M530,350 V470  M570,350 V470  M610,350 V470  M650,350 V470  M690,350 V470  M730,350 V470  M770,350 V470  M810,350 V470  M850,350 V470  M890,350 V470  M930,350 V470  M970,350 V470  M1010,350 V470  M1050,350 V470  M1090,350 V470  M1130,350 V470  M1170,350 V470  M1210,350 V470  M1250,350 V470  M1290,350 V470  M1330,350 V470  M1370,350 V470  M1410,350 V470  M1450,350 V470  M1490,350 V470  M1530,350 V470  M1570,350 V470  M1610,350 V470  M1650,350 V470  M1690,350 V470  M1730,350 V470  M1770,350 V470  M1810,350 V470  M1850,350 V470  M1890,350 V470  M1930,350 V470  M1970,350 V470  M2010,350 V470  M2050,350 V470  M2090,350 V470  M2130,350 V470  M2170,350 V470  M2210,350 V470  M2250,350 V470  M2290,350 V470  M2330,350 V470  M2370,350 V470  M2410,350 V470  M2450,350 V470  M2490,350 V470  M2530,350 V470  M2570,350 V470  M2610,350 V470  M2650,350 V470  M2690,350 V470  M2730,350 V470  M2770,350 V470  M2810,350 V470  M2850,350 V470  M2890,350 V470  M2930,350 V470  M2970,350 V470  M3010,350 V470  M3050,350 V470  M3090,350 V470  M3130,350 V470  M3170,350 V470  M3210,350 V470  M3250,350 V470  M3290,350 V470  M3330,350 V470  M3370,350 V470  M3410,350 V470  M3450,350 V470  M3490,350 V470  M3530,350 V470  M3570,350 V470  M3610,350 V470  M3650,350 V470  M3690,350 V470  M3730,350 V470  M3770,350 V470  M90,380 H3810  M90,410 H3810  M90,440 H3810  "/>
<path d="M90,480 H3810 V960 H90 V480 Z  M130,480 V960  M170,480 V960  M210,480 V960  M250,480 V960  M290,480 V960  M330,480 V960  M370,480 V960  M410,480 V960  M450,480 V960  M490,480 V960  M530,480 V960  M570,480 V960  M610,480 V960  M650,480 V960  M690,480 V960  M730,480 V960  M770,480 V960  M810,480 V960  M850,480 V960  M890,480 V960  M930,480 V960  M970,480 V960  M1010,480 V960  M1050,480 V960  M1090,480 V960  M1130,480 V960  M1170,480 V960  M1210,480 V960  M1250,480 V960  M1290,480 V960  M1330,480 V960  M1370,480 V960  M1410,480 V960  M1450,480 V960  M1490,480 V960  M1530,480 V960  M1570,480 V960  M1610,480 V960  M1650,480 V960  M1690,480 V960  M1730,480 V960  M1770,480 V960  M1810,480 V960  M1850,480 V960  M1890,480 V960  M1930,480 V960  M1970,480 V960  M2010,480 V960  M2050,480 V960  M2090,480 V960  M2130,480 V960  M2170,480 V960  M2210,480 V960  M2250,480 V960  M2290,480 V960  M2330,480 V960  M2370,480 V960  M2410,480 V960  M2450,480 V960  M2490,480 V960  M2530,480 V960  M2570,480 V960  M2610,480 V960  M2650,480 V960  M2690,480 V960  M2730,480 V960  M2770,480 V960  M2810,480 V960  M2850,480 V960  M2890,480 V960  M2930,480 V960  M2970,480 V960  M3010,480 V960  M3050,480 V960  M3090,480 V960  M3130,480 V960  M3170,480 V960  M3210,480 V960  M3250,480 V960  M3290,480 V960  M3330,480 V960  M3370,480 V960  M3410,480 V960  M3450,480 V960  M3490,480 V960  M3530,480 V960  M3570,480 V960  M3610,480 V960  M3650,480 V960  M3690,480 V960  M3730,480 V960  M3770,480 V960  M90,510 H3810  M90,540 H3810  M90,570 H3810  M90,600 H3810  M90,630 H3810  M90,660 H3810  M90,690 H3810  M90,720 H3810  M90,750 H3810  M90,780 H3810  M90,810 H3810  M90,840 H3810  M90,870 H3810  M90,900 H3810  M90,930 H3810  "/>
<path d="M90,970 H3810 V1450 H90 V970 Z  M130,970 V1450  M170,970 V1450  M210,970 V1450  M250,970 V1450  M290,970 V1450  M330,970 V1450  M370,970 V1450  M410,970 V1450  M450,970 V1450  M490,970 V1450  M530,970 V1450  M570,970 V1450  M610,970 V1450  M650,970 V1450  M690,970 V1450  M730,970 V1450  M770,970 V1450  M810,970 V1450  M850,970 V1450  M890,970 V1450  M930,970 V1450  M970,970 V1450  M1010,970 V1450  M1050,970 V1450  M1090,970 V1450  M1130,970 V1450  M1170,970 V1450  M1210,970 V1450  M1250,970 V1450  M1290,970 V1450  M1330,970 V1450  M1370,970 V1450  M1410,970 V1450  M1450,970 V1450  M1490,970 V1450  M1530,970 V1450  M1570,970 V1450  M1610,970 V1450  M1650,970 V1450  M1690,970 V1450  M1730,970 V1450  M1770,970 V1450  M1810,970 V1450  M1850,970 V1450  M1890,970 V1450  M1930,970 V1450  M1970,970 V1450  M2010,970 V1450  M2050,970 V1450  M2090,970 V1450  M2130,970 V1450  M2170,970 V1450  M2210,970 V1450  M2250,970 V1450  M2290,970 V1450  M2330,970 V1450  M2370,970 V1450  M2410,970 V1450  M2450,970 V1450  M2490,970 V1450  M2530,970 V1450  M2570,970 V1450  M2610,970 V1450  M2650,970 V1450  M2690,970 V1450  M2730,970 V1450  M2770,970 V1450  M2810,970 V1450  M2850,970 V1450  M2890,970 V1450  M2930,970 V1450  M2970,970 V1450  M3010,970 V1450  M3050,970 V1450  M3090,970 V1450  M3130,970 V1450  M3170,970 V1450  M3210,970 V1450  M3250,970 V1450  M3290,970 V1450  M3330,970 V1450  M3370,970 V1450  M3410,970 V1450  M3450,970 V1450  M3490,970 V1450  M3530,970 V1450  M3570,970 V1450  M3610,970 V1450  M3650,970 V1450  M3690,970 V1450  M3730,970 V1450  M3770,970 V1450  M90,1000 H3810  M90,1030 H3810  M90,1060 H3810  M90,1090 H3810  M90,1120 H3810  M90,1150 H3810  M90,1180 H3810  M90,1210 H3810  M90,1240 H3810  M90,1270 H3810  M90,1300 H3810  M90,1330 H3810  M90,1360 H3810  M90,1390 H3810  M90,1420 H3810  "/>
<path d="M90,1460 H3810 V1940 H90 V1460 Z  M130,1460 V1940  M170,1460 V1940  M210,1460 V1940  M250,1460 V1940  M290,1460 V1940  M330,1460 V1940  M370,1460 V1940  M410,1460 V1940  M450,1460 V1940  M490,1460 V1940  M530,1460 V1940  M570,1460 V1940  M610,1460 V1940  M650,1460 V1940  M690,1460 V1940  M730,1460 V1940  M770,1460 V1940  M810,1460 V1940  M850,1460 V1940  M890,1460 V1940  M930,1460 V1940  M970,1460 V1940  M1010,1460 V1940  M1050,1460 V1940  M1090,1460 V1940  M1130,1460 V1940  M1170,1460 V1940  M1210,1460 V1940  M1250,1460 V1940  M1290,1460 V1940  M1330,1460 V1940  M1370,1460 V1940  M1410,1460 V1940  M1450,1460 V1940  M1490,1460 V1940  M1530,1460 V1940  M1570,1460 V1940  M1610,1460 V1940  M1650,1460 V1940  M1690,1460 V1940  M1730,1460 V1940  M1770,1460 V1940  M1810,1460 V1940  M1850,1460 V1940  M1890,1460 V1940  M1930,1460 V1940  M1970,1460 V1940  M2010,1460 V1940  M2050,1460 V1940  M2090,1460 V1940  M2130,1460 V1940  M2170,1460 V1940  M2210,1460 V1940  M2250,1460 V1940  M2290,1460 V1940  M2330,1460 V1940  M2370,1460 V1940  M2410,1460 V1940  M2450,1460 V1940  M2490,1460 V1940  M2530,1460 V1940  M2570,1460 V1940  M2610,1460 V1940  M2650,1460 V1940  M2690,1460 V1940  M2730,1460 V1940  M2770,1460 V1940  M2810,1460 V1940  M2850,1460 V1940  M2890,1460 V1940  M2930,1460 V1940  M2970,1460 V1940  M3010,1460 V1940  M3050,1460 V1940  M3090,1460 V1940  M3130,1460 V1940  M3170,1460 V1940  M3210,1460 V1940  M3250,1460 V1940  M3290,1460 V1940  M3330,1460 V1940  M3370,1460 V1940  M3410,1460 V1940  M3450,1460 V1940  M3490,1460 V1940  M3530,1460 V1940  M3570,1460 V1940  M3610,1460 V1940  M3650,1460 V1940  M3690,1460 V1940  M3730,1460 V1940  M3770,1460 V1940  M90,1490 H3810  M90,1520 H3810  M90,1550 H3810  M90,1580 H3810  M90,1610 H3810  M90,1640 H3810  M90,1670 H3810  M90,1700 H3810  M90,1730 H3810  M90,1760 H3810  M90,1790 H3810  M90,1820 H3810  M90,1850 H3810  M90,1880 H3810  M90,1910 H3810  "/>
<path d="M90,1950 H3810 V2430 H90 V1950 Z  M130,1950 V2430  M170,1950 V2430  M210,1950 V2430  M250,1950 V2430  M290,1950 V2430  M330,1950 V2430  M370,1950 V2430  M410,1950 V2430  M450,1950 V2430  M490,1950 V2430  M530,1950 V2430  M570,1950 V2430  M610,1950 V2430  M650,1950 V2430  M690,1950 V2430  M730,1950 V2430  M770,1950 V2430  M810,1950 V2430  M850,1950 V2430  M890,1950 V2430  M930,1950 V2430  M970,1950 V2430  M1010,1950 V2430  M1050,1950 V2430  M1090,1950 V2430  M1130,1950 V2430  M1170,1950 V2430  M1210,1950 V2430  M1250,1950 V2430  M1290,1950 V2430  M1330,1950 V2430  M1370,1950 V2430  M1410,1950 V2430  M1450,1950 V2430  M1490,1950 V2430  M1530,1950 V2430  M1570,1950 V2430  M1610,1950 V2430  M1650,1950 V2430  M1690,1950 V2430  M1730,1950 V2430  M1770,1950 V2430  M1810,1950 V2430  M1850,1950 V2430  M1890,1950 V2430  M1930,1950 V2430  M1970,1950 V2430  M2010,1950 V2430  M2050,1950 V2430  M2090,1950 V2430  M2130,1950 V2430  M2170,1950 V2430  M2210,1950 V2430  M2250,1950 V2430  M2290,1950 V2430  M2330,1950 V2430  M2370,1950 V2430  M2410,1950 V2430  M2450,1950 V2430  M2490,1950 V2430  M2530,1950 V2430  M2570,1950 V2430  M2610,1950 V2430  M2650,1950 V2430  M2690,1950 V2430  M2730,1950 V2430  M2770,1950 V2430  M2810,1950 V2430  M2850,1950 V2430  M2890,1950 V2430  M2930,1950 V2430  M2970,1950 V2430  M3010,1950 V2430  M3050,1950 V2430  M3090,1950 V2430  M3130,1950 V2430  M3170,1950 V2430  M3210,1950 V2430  M3250,1950 V2430  M3290,1950 V2430  M3330,1950 V2430  M3370,1950 V2430  M3410,1950 V2430  M3450,1950 V2430  M3490,1950 V2430  M3530,1950 V2430  M3570,1950 V2430  M3610,1950 V2430  M3650,1950 V2430  M3690,1950 V2430  M3730,1950 V2430  M3770,1950 V2430  M90,1980 H3810  M90,2010 H3810  M90,2040 H3810  M90,2070 H3810  M90,2100 H3810  M90,2130 H3810  M90,2160 H3810  M90,2190 H3810  M90,2220 H3810  M90,2250 H3810  M90,2280 H3810  M90,2310 H3810  M90,2340 H3810  M90,2370 H3810  M90,2400 H3810  "/>
<path d="M90,2440 H3810 V2920 H90 V2440 Z  M130,2440 V2920  M170,2440 V2920  M210,2440 V2920  M250,2440 V2920  M290,2440 V2920  M330,2440 V2920  M370,2440 V2920  M410,2440 V2920  M450,2440 V2920  M490,2440 V2920  M530,2440 V2920  M570,2440 V2920  M610,2440 V2920  M650,2440 V2920  M690,2440 V2920  M730,2440 V2920  M770,2440 V2920  M810,2440 V2920  M850,2440 V2920  M890,2440 V2920  M930,2440 V2920  M970,2440 V2920  M1010,2440 V2920  M1050,2440 V2920  M1090,2440 V2920  M1130,2440 V2920  M1170,2440 V2920  M1210,2440 V2920  M1250,2440 V2920  M1290,2440 V2920  M1330,2440 V2920  M1370,2440 V2920  M1410,2440 V2920  M1450,2440 V2920  M1490,2440 V2920  M1530,2440 V2920  M1570,2440 V2920  M1610,2440 V2920  M1650,2440 V2920  M1690,2440 V2920  M1730,2440 V2920  M1770,2440 V2920  M1810,2440 V2920  M1850,2440 V2920  M1890,2440 V2920  M1930,2440 V2920  M1970,2440 V2920  M2010,2440 V2920  M2050,2440 V2920  M2090,2440 V2920  M2130,2440 V2920  M2170,2440 V2920  M2210,2440 V2920  M2250,2440 V2920  M2290,2440 V2920  M2330,2440 V2920  M2370,2440 V2920  M2410,2440 V2920  M2450,2440 V2920  M2490,2440 V2920  M2530,2440 V2920  M2570,2440 V2920  M2610,2440 V2920  M2650,2440 V2920  M2690,2440 V2920  M2730,2440 V2920  M2770,2440 V2920  M2810,2440 V2920  M2850,2440 V2920  M2890,2440 V2920  M2930,2440 V2920  M2970,2440 V2920  M3010,2440 V2920  M3050,2440 V2920  M3090,2440 V2920  M3130,2440 V2920  M3170,2440 V2920  M3210,2440 V2920  M3250,2440 V2920  M3290,2440 V2920  M3330,2440 V2920  M3370,2440 V2920  M3410,2440 V2920  M3450,2440 V2920  M3490,2440 V2920  M3530,2440 V2920  M3570,2440 V2920  M3610,2440 V2920  M3650,2440 V2920  M3690,2440 V2920  M3730,2440 V2920  M3770,2440 V2920  M90,2470 H3810  M90,2500 H3810  M90,2530 H3810  M90,2560 H3810  M90,2590 H3810  M90,2620 H3810  M90,2650 H3810  M90,2680 H3810  M90,2710 H3810  M90,2740 H3810  M90,2770 H3810  M90,2800 H3810  M90,2830 H3810  M90,2860 H3810  M90,2890 H3810  "/>
<path d="M90,2930 H3810 V3410 H90 V2930 Z  M130,2930 V3410  M170,2930 V3410  M210,2930 V3410  M250,2930 V3410  M290,2930 V3410  M330,2930 V3410  M370,2930 V3410  M410,2930 V3410  M450,2930 V3410  M490,2930 V3410  M530,2930 V3410  M570,2930 V3410  M610,2930 V3410  M650,2930 V3410  M690,2930 V3410  M730,2930 V3410  M770,2930 V3410  M810,2930 V3410  M850,2930 V3410  M890,2930 V3410  M930,2930 V3410  M970,2930 V3410  M1010,2930 V3410  M1050,2930 V3410  M1090,2930 V3410  M1130,2930 V3410  M1170,2930 V3410  M1210,2930 V3410  M1250,2930 V3410  M1290,2930 V3410  M1330,2930 V3410  M1370,2930 V3410  M1410,2930 V3410  M1450,2930 V3410  M1490,2930 V3410  M1530,2930 V3410  M1570,2930 V3410  M1610,2930 V3410  M1650,2930 V3410  M1690,2930 V3410  M1730,2930 V3410  M1770,2930 V3410  M1810,2930 V3410  M1850,2930 V3410  M1890,2930 V3410  M1930,2930 V3410  M1970,2930 V3410  M2010,2930 V3410  M2050,2930 V3410  M2090,2930 V3410  M2130,2930 V3410  M2170,2930 V3410  M2210,2930 V3410  M2250,2930 V3410  M2290,2930 V3410  M2330,2930 V3410  M2370,2930 V3410  M2410,2930 V3410  M2450,2930 V3410  M2490,2930 V3410  M2530,2930 V3410  M2570,2930 V3410  M2610,2930 V3410  M2650,2930 V3410  M2690,2930 V3410  M2730,2930 V3410  M2770,2930 V3410  M2810,2930 V3410  M2850,2930 V3410  M2890,2930 V3410  M2930,2930 V3410  M2970,2930 V3410  M3010,2930 V3410  M3050,2930 V3410  M3090,2930 V3410  M3130,2930 V3410  M3170,2930 V3410  M3210,2930 V3410  M3250,2930 V3410  M3290,2930 V3410  M3330,2930 V3410  M3370,2930 V3410  M3410,2930 V3410  M3450,2930 V3410  M3490,2930 V3410  M3530,2930 V3410  M3570,2930 V3410  M3610,2930 V3410  M3650,2930 V3410  M3690,2930 V3410  M3730,2930 V3410  M3770,2930 V3410  M90,2960 H3810  M90,2990 H3810  M90,3020 H3810  M90,3050 H3810  M90,3080 H3810  M90,3110 H3810  M90,3140 H3810  M90,3170 H3810  M90,3200 H3810  M90,3230 H3810  M90,3260 H3810  M90,3290 H3810  M90,3320 H3810  M90,3350 H3810  M90,3380 H3810  "/>
<path d="M90,3420 H3810 V3660 H90 V3420 Z  M130,3420 V3660  M170,3420 V3660  M210,3420 V3660  M250,3420 V3660  M290,3420 V3660  M330,3420 V3660  M370,3420 V3660  M410,3420 V3660  M450,3420 V3660  M490,3420 V3660  M530,3420 V3660  M570,3420 V3660  M610,3420 V3660  M650,3420 V3660  M690,3420 V3660  M730,3420 V3660  M770,3420 V3660  M810,3420 V3660  M850,3420 V3660  M890,3420 V3660  M930,3420 V3660  M970,3420 V3660  M1010,3420 V3660  M1050,3420 V3660  M1090,3420 V3660  M1130,3420 V3660  M1170,3420 V3660  M1210,3420 V3660  M1250,3420 V3660  M1290,3420 V3660  M1330,3420 V3660  M1370,3420 V3660  M1410,3420 V3660  M1450,3420 V3660  M1490,3420 V3660  M1530,3420 V3660  M1570,3420 V3660  M1610,3420 V3660  M1650,3420 V3660  M1690,3420 V3660  M1730,3420 V3660  M1770,3420 V3660  M1810,3420 V3660  M1850,3420 V3660  M1890,3420 V3660  M1930,3420 V3660  M1970,3420 V3660  M2010,3420 V3660  M2050,3420 V3660  M2090,3420 V3660  M2130,3420 V3660  M2170,3420 V3660  M2210,3420 V3660  M2250,3420 V3660  M2290,3420 V3660  M2330,3420 V3660  M2370,3420 V3660  M2410,3420 V3660  M2450,3420 V3660  M2490,3420 V3660  M2530,3420 V3660  M2570,3420 V3660  M2610,3420 V3660  M2650,3420 V3660  M2690,3420 V3660  M2730,3420 V3660  M2770,3420 V3660  M2810,3420 V3660  M2850,3420 V3660  M2890,3420 V3660  M2930,3420 V3660  M2970,3420 V3660  M3010,3420 V3660  M3050,3420 V3660  M3090,3420 V3660  M3130,3420 V3660  M3170,3420 V3660  M3210,3420 V3660  M3250,3420 V3660  M3290,3420 V3660  M3330,3420 V3660  M3370,3420 V3660  M3410,3420 V3660  M3450,3420 V3660  M3490,3420 V3660  M3530,3420 V3660  M3570,3420 V3660  M3610,3420 V3660  M3650,3420 V3660  M3690,3420 V3660  M3730,3420 V3660  M3770,3420 V3660  M90,3450 H3810  M90,3480 H3810  M90,3510 H3810  M90,3540 H3810  M90,3570 H3810  M90,3600 H3810  M90,3630 H3810  "/>
<polygon class="project" points="93,153 93,207 207,207 207,93 173,93 173,153 "/>
<text class="project-text" id="project_001_0" x="150" y="180">
Project1
</text>
<rect class="project" height="54" width="154" x="213" y="123"/>
<text class="project-text" id="project_002_0" x="290" y="150">
Project2
</text>
<polygon class="project" points="213,183 213,207 447,207 447,117 567,117 567,93 373,93 373,183 "/>
<text class="project-text" id="project_003_0" x="330" y="195">
Project3
</text>
</svg>