<svg height="21600" preserveAspectRatio="xMidYMid meet" viewBox="0 0 38400 21600" width="38400" xmlns="http://www.w3.org/2000/svg" xmlns:xlink="http://www.w3.org/1999/xlink">
<defs>
<style>

path{
    fill: green;
    stroke : black;
    stroke-width: 1;
    stroke-opacity : 1.0;
    fill-opacity : 0.5;
}

polygon{
    fill : green;
    stroke : blue;
    stroke-width : 1;
    stroke-opacity : 1.0;
    fill-opacity : 0.5;
}

rect{
    fill : white;
    stroke : black;
    stroke-width : 1;
    stroke-opacity : 1.0;
    fill-opacity : 0.5;
}

text{
    font-family : Arial;
    font-size : 10px;
    text-anchor : middle;
    fill : black;
    font-weight : normal;
    transform: translateY(0.3em);
}

.project{
    fill: url(#gradient_blue);
    fill-opacity : 1;
    rx:2px;
    ry:2px;
}

</style>
</defs>
<defs>
<linearGradient id="gradient_blue" x1="0%" x2="100%" y1="0%" y2="100%">
<stop offset="0%" style="stop-color:#6083CB;stop-opacity:1"/>
<stop offset="0%" style="stop-color:#3E70CA;stop-opacity:1"/>
<stop offset="100%" style="stop-color:#2E61BA;stop-opacity:1"/>
</linearGradient>
<linearGradient id="gradient_rainbow" x1="0%" x2="100%" y1="0%" y2="0%">
<stop offset="0%" stop-color="red"/>
<stop offset="14%" stop-color="orange"/>
<stop offset="28%" stop-color="yellow"/>
<stop offset="42%" stop-color="green"/>
<stop offset="56%" stop-color="blue"/>
<stop offset="70%" stop-color="indigo"/>
<stop offset="84%" stop-color="violet"/>
<stop offset="100%" stop-color="red"/>
</linearGradient>
<radialGradient cx="50%" cy="50%" fx="50%" fy="50%" id="gradient2" r="50%">
<stop offset="0%" style="stop-color:rgb(0,0,255);stop-opacity:1"/>
<stop offset="100%" style="stop-color:rgb(0,255,0);stop-opacity:1"/>
</radialGradient>
</defs>
<rect height="10" width="640" x="80" y="0"/>
<text x="400" y="5">
Aug
</text>
<rect height="10" width="640" x="720" y="0"/>
<text x="1040" y="5">
Sep
</text>
<rect height="10" width="40" x="80" y="10"/>
<text x="100" y="15">
16
</text>
<rect height="10" width="40" x="120" y="10"/>
<text x="140" y="15">
17
</text>
<rect height="10" width="40" x="160" y="10"/>
<text x="180" y="15">
18
</text>
<rect height="10" width="40" x="200" y="10"/>
<text x="220" y="15">
19
</text>
<rect height="10" width="40" x="240" y="10"/>
<text x="260" y="15">
20
</text>
<rect height="10" width="40" x="280" y="10"/>
<text x="300" y="15">
21
</text>
<rect height="10" width="40" x="320" y="10"/>
<text x="340" y="15">
22
</text>
<rect height="10" width="40" x="360" y="10"/>
<text x="380" y="15">
23
</text>
<rect height="10" width="40" x="400" y="10"/>
<text x="420" y="15">
24
</text>
<rect height="10" width="40" x="440" y="10"/>
<text x="460" y="15">
25
</text>
<rect height="10" width="40" x="480" y="10"/>
<text x="500" y="15">
26
</text>
<rect height="10" width="40" x="520" y="10"/>
<text x="540" y="15">
27
</text>
<rect height="10" width="40" x="560" y="10"/>
<text x="580" y="15">
28
</text>
<rect height="10" width="40" x="600" y="10"/>
<text x="620" y="15">
29
</text>
<rect height="10" width="40" x="640" y="10"/>
<text x="660" y="15">
30
</text>
<rect height="10" width="40" x="680" y="10"/>
<text x="700" y="15">
31
</text>
<rect height="10" width="40" x="720" y="10"/>
<text x="740" y="15">
01
</text>
<rect height="10" width="40" x="760" y="10"/>
<text x="780" y="15">
02
</text>
<rect height="10" width="40" x="800" y="10"/>
<text x="820" y="15">
03
</text>
<rect height="10" width="40" x="840" y="10"/>
<text x="860" y="15">
04
</text>
<rect height="10" width="40" x="880" y="10"/>
<text x="900" y="15">
05
</text>
<rect height="10" width="40" x="920" y="10"/>
<text x="940" y="15">
06
</text>
<rect height="10" width="40" x="960" y="10"/>
<text x="980" y="15">
07
</text>
<rect height="10" width="40" x="1000" y="10"/>
<text x="1020" y="15">
08
</text>
<rect height="10" width="40" x="1040" y="10"/>
<text x="1060" y="15">
09
</text>
<rect height="10" width="40" x="1080" y="10"/>
<text x="1100" y="15">
10
</text>
<rect height="10" width="40" x="1120" y="10"/>
<text x="1140" y="15">
11
</text>
<rect height="10" width="40" x="1160" y="10"/>
<text x="1180" y="15">
12
</text>
<rect height="10" width="40" x="1200" y="10"/>
<text x="1220" y="15">
13
</text>
<rect height="10" width="40" x="1240" y="10"/>
<text x="1260" y="15">
14
</text>
<rect height="10" width="40" x="1280" y="10"/>
<text x="1300" y="15">
15
</text>
<rect height="10" width="40" x="1320" y="10"/>
<text x="1340" y="15">
16
</text>
<rect height="120" width="40" x="0" y="20"/>
<text x="20" y="80">
CPU 64
</text>
<rect height="120" width="40" x="0" y="150"/>
<text x="20" y="210">
GPU 64
</text>
<rect height="120" width="40" x="0" y="280"/>
<text x="20" y="340">
GPU 64
</text>
<rect height="480" width="40" x="0" y="410"/>
<text x="20" y="650">
CPU 
</text>
<rect height="480" width="40" x="0" y="900"/>
<text x="20" y="1140">
CPU 
</text>
<rect height="480" width="40" x="0" y="1390"/>
<text x="20" y="1630">
CPU 
</text>
<rect height="480" width="40" x="0" y="1880"/>
<text x="20" y="2120">
CPU 
</text>
<rect height="480" width="40" x="0" y="2370"/>
<text x="20" y="2610">
CPU 
</text>
<rect height="480" width="40" x="0" y="2860"/>
<text x="20" y="3100">
CPU 
</text>
<rect height="240" width="40" x="0" y="3350"/>
<text x="20" y="3470">
CPU 
</text>
<rect height="30" width="40" x="40" y="20"/>
<text x="60" y="35">
F283
</text>
<rect height="30" width="40" x="40" y="50"/>
<text x="60" y="65">
F284
</text>
<rect height="30" width="40" x="40" y="80"/>
<text x="60" y="95">
F285
</text>
<rect height="30" width="40" x="40" y="110"/>
<text x="60" y="125">
F286
</text>
<rect height="30" width="40" x="40" y="150"/>
<text x="60" y="165">
F319
</text>
<rect height="30" width="40" x="40" y="180"/>
<text x="60" y="195">
F320
</text>
<rect height="30" width="40" x="40" y="210"/>
<text x="60" y="225">
F321
</text>
<rect height="30" width="40" x="40" y="240"/>
<text x="60" y="255">
F322
</text>
<rect height="30" width="40" x="40" y="280"/>
<text x="60" y="295">
F413
</text>
<rect height="30" width="40" x="40" y="310"/>
<text x="60" y="325">
F414
</text>
<rect height="30" width="40" x="40" y="340"/>
<text x="60" y="355">
F415
</text>
<rect height="30" width="40" x="40" y="370"/>
<text x="60" y="385">
F416
</text>
<rect height="30" width="40" x="40" y="410"/>
<text x="60" y="425">
F303
</text>
<rect height="30" width="40" x="40" y="440"/>
<text x="60" y="455">
F304
</text>
<rect height="30" width="40" x="40" y="470"/>
<text x="60" y="485">
F305
</text>
<rect height="30" width="40" x="40" y="500"/>
<text x="60" y="515">
F306
</text>
<rect height="30" width="40" x="40" y="530"/>
<text x="60" y="545">
F307
</text>
<rect height="30" width="40" x="40" y="560"/>
<text x="60" y="575">
F308
</text>
<rect height="30" width="40" x="40" y="590"/>
<text x="60" y="605">
F309
</text>
<rect height="30" width="40" x="40" y="620"/>
<text x="60" y="635">
F310
</text>
<rect height="30" width="40" x="40" y="650"/>
<text x="60" y="665">
F311
</text>
<rect height="30" width="40" x="40" y="680"/>
<text x="60" y="695">
F312
</text>
<rect height="30" width="40" x="40" y="710"/>
<text x="60" y="725">
F313
</text>
<rect height="30" width="40" x="40" y="740"/>
<text x="60" y="755">
F314
</text>
<rect height="30" width="40" x="40" y="770"/>
<text x="60" y="785">
F315
</text>
<rect height="30" width="40" x="40" y="800"/>
<text x="60" y="815">
F316
</text>
<rect height="30" width="40" x="40" y="830"/>
<text x="60" y="845">
F317
</text>
<rect height="30" width="40" x="40" y="860"/>
<text x="60" y="875">
F318
</text>
<rect height="30" width="40" x="40" y="900"/>
<text x="60" y="915">
F324
</text>
<rect height="30" width="40" x="40" y="930"/>
<text x="60" y="945">
F325
</text>
<rect height="30" width="40" x="40" y="960"/>
<text x="60" y="975">
F326
</text>
<rect height="30" width="40" x="40" y="990"/>
<text x="60" y="1005">
F327
</text>
<rect height="30" width="40" x="40" y="1020"/>
<text x="60" y="1035">
F328
</text>
<rect height="30" width="40" x="40" y="1050"/>
<text x="60" y="1065">
F329
</text>
<rect height="30" width="40" x="40" y="1080"/>
<text x="60" y="1095">
F330
</text>
<rect height="30" width="40" x="40" y="1110"/>
<text x="60" y="1125">
F331
</text>
<rect height="30" width="40" x="40" y="1140"/>
<text x="60" y="1155">
F332
</text>
<rect height="30" width="40" x="40" y="1170"/>
<text x="60" y="1185">
F333
</text>
<rect height="30" width="40" x="40" y="1200"/>
<text x="60" y="1215">
F334
</text>
<rect height="30" width="40" x="40" y="1230"/>
<text x="60" y="1245">
F335
</text>
<rect height="30" width="40" x="40" y="1260"/>
<text x="60" y="1275">
F336
</text>
<rect height="30" width="40" x="40" y="1290"/>
<text x="60" y="1305">
F337
</text>
<rect height="30" width="40" x="40" y="1320"/>
<text x="60" y="1335">
F338
</text>
<rect height="30" width="40" x="40" y="1350"/>
<text x="60" y="1365">
F339
</text>
<rect height="30" width="40" x="40" y="1390"/>
<text x="60" y="1405">
F340
</text>
<rect height="30" width="40" x="40" y="1420"/>
<text x="60" y="1435">
F341
</text>
<rect height="30" width="40" x="40" y="1450"/>
<text x="60" y="1465">
F342
</text>
<rect height="30" width="40" x="40" y="1480"/>
<text x="60" y="1495">
F343
</text>
<rect height="30" width="40" x="40" y="1510"/>
<text x="60" y="1525">
F344
</text>
<rect height="30" width="40" x="40" y="1540"/>
<text x="60" y="1555">
F345
</text>
<rect height="30" width="40" x="40" y="1570"/>
<text x="60" y="1585">
F346
</text>
<rect height="30" width="40" x="40" y="1600"/>
<text x="60" y="1615">
F347
</text>
<rect height="30" width="40" x="40" y="1630"/>
<text x="60" y="1645">
F348
</text>
<rect height="30" width="40" x="40" y="1660"/>
<text x="60" y="1675">
F349
</text>
<rect height="30" width="40" x="40" y="1690"/>
<text x="60" y="1705">
F350
</text>
<rect height="30" width="40" x="40" y="1720"/>
<text x="60" y="1735">
F351
</text>
<rect height="30" width="40" x="40" y="1750"/>
<text x="60" y="1765">
F352
</text>
<rect height="30" width="40" x="40" y="1780"/>
<text x="60" y="1795">
F353
</text>
<rect height="30" width="40" x="40" y="1810"/>
<text x="60" y="1825">
F354
</text>
<rect height="30" width="40" x="40" y="1840"/>
<text x="60" y="1855">
F355
</text>
<rect height="30" width="40" x="40" y="1880"/>
<text x="60" y="1895">
F356
</text>
<rect height="30" width="40" x="40" y="1910"/>
<text x="60" y="1925">
F357
</text>
<rect height="30" width="40" x="40" y="1940"/>
<text x="60" y="1955">
F358
</text>
<rect height="30" width="40" x="40" y="1970"/>
<text x="60" y="1985">
F359
</text>
<rect height="30" width="40" x="40" y="2000"/>
<text x="60" y="2015">
F360
</text>
<rect height="30" width="40" x="40" y="2030"/>
<text x="60" y="2045">
F361
</text>
<rect height="30" width="40" x="40" y="2060"/>
<text x="60" y="2075">
F362
</text>
<rect height="30" width="40" x="40" y="2090"/>
<text x="60" y="2105">
F363
</text>
<rect height="30" width="40" x="40" y="2120"/>
<text x="60" y="2135">
F364
</text>
<rect height="30" width="40" x="40" y="2150"/>
<text x="60" y="2165">
F365
</text>
<rect height="30" width="40" x="40" y="2180"/>
<text x="60" y="2195">
F366
</text>
<rect height="30" width="40" x="40" y="2210"/>
<text x="60" y="2225">
F367
</text>
<rect height="30" width="40" x="40" y="2240"/>
<text x="60" y="2255">
F368
</text>
<rect height="30" width="40" x="40" y="2270"/>
<text x="60" y="2285">
F369
</text>
<rect height="30" width="40" x="40" y="2300"/>
<text x="60" y="2315">
F370
</text>
<rect height="30" width="40" x="40" y="2330"/>
<text x="60" y="2345">
F371
</text>
<rect height="30" width="40" x="40" y="2370"/>
<text x="60" y="2385">
F373
</text>
<rect height="30" width="40" x="40" y="2400"/>
<text x="60" y="2415">
F374
</text>
<rect height="30" width="40" x="40" y="2430"/>
<text x="60" y="2445">
F375
</text>
<rect height="30" width="40" x="40" y="2460"/>
<text x="60" y="2475">
F376
</text>
<rect height="30" width="40" x="40" y="2490"/>
<text x="60" y="2505">
F377
</text>
<rect height="30" width="40" x="40" y="2520"/>
<text x="60" y="2535">
F378
</text>
<rect height="30" width="40" x="40" y="2550"/>
<text x="60" y="2565">
F379
</text>
<rect height="30" width="40" x="40" y="2580"/>
<text x="60" y="2595">
F380
</text>
<rect height="30" width="40" x="40" y="2610"/>
<text x="60" y="2625">
F381
</text>
<rect height="30" width="40" x="40" y="2640"/>
<text x="60" y="2655">
F382
</text>
<rect height="30" width="40" x="40" y="2670"/>
<text x="60" y="2685">
F383
</text>
<rect height="30" width="40" x="40" y="2700"/>
<text x="60" y="2715">
F384
</text>
<rect height="30" width="40" x="40" y="2730"/>
<text x="60" y="2745">
F385
</text>
<rect height="30" width="40" x="40" y="2760"/>
<text x="60" y="2775">
F386
</text>
<rect height="30" width="40" x="40" y="2790"/>
<text x="60" y="2805">
F387
</text>
<rect height="30" width="40" x="40" y="2820"/>
<text x="60" y="2835">
F388
</text>
<rect height="30" width="40" x="40" y="2860"/>
<text x="60" y="2875">
F389
</text>
<rect height="30" width="40" x="40" y="2890"/>
<text x="60" y="2905">
F390
</text>
<rect height="30" width="40" x="40" y="2920"/>
<text x="60" y="2935">
F391
</text>
<rect height="30" width="40" x="40" y="2950"/>
<text x="60" y="2965">
F392
</text>
<rect height="30" width="40" x="40" y="2980"/>
<text x="60" y="2995">
F393
</text>
<rect height="30" width="40" x="40" y="3010"/>
<text x="60" y="3025">
F394
</text>
<rect height="30" width="40" x="40" y="3040"/>
<text x="60" y="3055">
F395
</text>
<rect height="30" width="40" x="40" y="3070"/>
<text x="60" y="3085">
F396
</text>
<rect height="30" width="40" x="40" y="3100"/>
<text x="60" y="3115">
F397
</text>
<rect height="30" width="40" x="40" y="3130"/>
<text x="60" y="3145">
F398
</text>
<rect height="30" width="40" x="40" y="3160"/>
<text x="60" y="3175">
F399
</text>
<rect height="30" width="40" x="40" y="3190"/>
<text x="60" y="3205">
F400
</text>
<rect height="30" width="40" x="40" y="3220"/>
<text x="60" y="3235">
F401
</text>
<rect height="30" width="40" x="40" y="3250"/>
<text x="60" y="3265">
F402
</text>
<rect height="30" width="40" x="40" y="3280"/>
<text x="60" y="3295">
F403
</text>
<rect height="30" width="40" x="40" y="3310"/>
<text x="60" y="3325">
F404
</text>
<rect height="30" width="40" x="40" y="3350"/>
<text x="60" y="3365">
F405
</text>
<rect height="30" width="40" x="40" y="3380"/>
<text x="60" y="3395">
F406
</text>
<rect height="30" width="40" x="40" y="3410"/>
<text x="60" y="3425">
F407
</text>
<rect height="30" width="40" x="40" y="3440"/>
<text x="60" y="3455">
F408
</text>
<rect height="30" width="40" x="40" y="3470"/>
<text x="60" y="3485">
F409
</text>
<rect height="30" width="40" x="40" y="3500"/>
<text x="60" y="3515">
F410
</text>
<rect height="30" width="40" x="40" y="3530"/>
<text x="60" y="3545">
F411
</text>
<rect height="30" width="40" x="40" y="3560"/>
<text x="60" y="3575">
F412
</text>
<path d="M80,20 H1360 V140 H80 V20 Z  M120,20 V140  M160,20 V140  M200,20 V140  M240,20 V140  M280,20 V140  M320,20 V140  M360,20 V140  M400,20 V140  M440,20 V140  M480,20 V140  M520,20 V140  M560,20 V140  M600,20 V140  M640,20 V140  M680,20 V140  M720,20 V140  M760,20 V140  M800,20 V140  M840,20 V140  M880,20 V140  M920,20 V140  M960,20 V140  M1000,20 V140  M1040,20 V140  M1080,20 V140  M1120,20 V140  M1160,20 V140  M1200,20 V140  M1240,20 V140  M1280,20 V140  M1320,20 V140  M80,50 H1360  M80,80 H1360  M80,110 H1360  "/>
<path d="M80,150 H1360 V270 H80 V150 Z  M120,150 V270  M160,150 V270  M200,150 V270  M240,150 V270  M280,150 V270  M320,150 V270  M360,150 V270  M400,150 V270  M440,150 V270  M480,150 V270  M520,150 V270  M560,150 V270  M600,150 V270  M640,150 V270  M680,150 V270  M720,150 V270  M760,150 V270  M800,150 V270  M840,150 V270  M880,150 V270  M920,150 V270  M960,150 V270  M1000,150 V270  M1040,150 V270  M1080,150 V270  M1120,150 V270  M1160,150 V270  M1200,150 V270  M1240,150 V270  M1280,150 V270  M1320,150 V270  M80,180 H1360  M80,210 H1360  M80,240 H1360  "/>
<path d="M80,280 H1360 V400 H80 V280 Z  M120,280 V400  M160,280 V400  M200,280 V400  M240,280 V400  M280,280 V400  M320,280 V400  M360,280 V400  M400,280 V400  M440,280 V400  M480,280 V400  M520,280 V400  M560,280 V400  M600,280 V400  M640,280 V400  M680,280 V400  M720,280 V400  M760,280 V400  M800,280 V400  M840,280 V400  M880,280 V400  M920,280 V400  M960,280 V400  M1000,280 V400  M1040,280 V400  M1080,280 V400  M1120,280 V400  M1160,280 V400  M1200,280 V400  M1240,280 V400  M1280,280 V400  M1320,280 V400  M80,310 H1360  M80,340 H1360  M80,370 H1360  "/>
<path d="M80,410 H1360 V890 H80 V410 Z  M120,410 V890  M160,410 V890  M200,410 V890  M240,410 V890  M280,410 V890  M320,410 V890  M360,410 V890  M400,410 V890  M440,410 V890  M480,410 V890  M520,410 V890  M560,410 V890  M600,410 V890  M640,410 V890  M680,410 V890  M720,410 V890  M760,410 V890  M800,410 V890  M840,410 V890  M880,410 V890  M920,410 V890  M960,410 V890  M1000,410 V890  M1040,410 V890  M1080,410 V890  M1120,410 V890  M1160,410 V890  M1200,410 V890  M1240,410 V890  M1280,410 V890  M1320,410 V890  M80,440 H1360  M80,470 H1360  M80,500 H1360  M80,530 H1360  M80,560 H1360  M80,590 H1360  M80,620 H1360  M80,650 H1360  M80,680 H1360  M80,710 H1360  M80,740 H1360  M80,770 H1360  M80,800 H1360  M80,830 H1360  M80,860 H1360  "/>
<path d="M80,900 H1360 V1380 H80 V900 Z  M120,900 V1380  M160,900 V1380  M200,900 V1380  M240,900 V1380  M280,900 V1380  M320,900 V1380  M360,900 V1380  M400,900 V1380  M440,900 V1380  M480,900 V1380  M520,900 V1380  M560,900 V1380  M600,900 V1380  M640,900 V1380  M680,900 V1380  M720,900 V1380  M760,900 V1380  M800,900 V1380  M840,900 V1380  M880,900 V1380  M920,900 V1380  M960,900 V1380  M1000,900 V1380  M1040,900 V1380  M1080,900 V1380  M1120,900 V1380  M1160,900 V1380  M1200,900 V1380  M1240,900 V1380  M1280,900 V1380  M1320,900 V1380  M80,930 H1360  M80,960 H1360  M80,990 H1360  M80,1020 H1360  M80,1050 H1360  M80,1080 H1360  M80,1110 H1360  M80,1140 H1360  M80,1170 H1360  M80,1200 H1360  M80,1230 H1360  M80,1260 H1360  M80,1290 H1360  M80,1320 H1360  M80,1350 H1360  "/>
<path d="M80,1390 H1360 V1870 H80 V1390 Z  M120,1390 V1870  M160,1390 V1870  M200,1390 V1870  M240,1390 V1870  M280,1390 V1870  M320,1390 V1870  M360,1390 V1870  M400,1390 V1870  M440,1390 V1870  M480,1390 V1870  M520,1390 V1870  M560,1390 V1870  M600,1390 V1870  M640,1390 V1870  M680,1390 V1870  M720,1390 V1870  M760,1390 V1870  M800,1390 V1870  M840,1390 V1870  M880,1390 V1870  M920,1390 V1870  M960,1390 V1870  M1000,1390 V1870  M1040,1390 V1870  M1080,1390 V1870  M1120,1390 V1870  M1160,1390 V1870  M1200,1390 V1870  M1240,1390 V1870  M1280,1390 V1870  M1320,1390 V1870  M80,1420 H1360  M80,1450 H1360  M80,1480 H1360  M80,1510 H1360  M80,1540 H1360  M80,1570 H1360  M80,1600 H1360  M80,1630 H1360  M80,1660 H1360  M80,1690 H1360  M80,1720 H1360  M80,1750 H1360  M80,1780 H1360  M80,1810 H1360  M80,1840 H1360  "/>
<path d="M80,1880 H1360 V2360 H80 V1880 Z  M120,1880 V2360  M160,1880 V2360  M200,1880 V2360  M240,1880 V2360  M280,1880 V2360  M320,1880 V2360  M360,1880 V2360  M400,1880 V2360  M440,1880 V2360  M480,1880 V2360  M520,1880 V2360  M560,1880 V2360  M600,1880 V2360  M640,1880 V2360  M680,1880 V2360  M720,1880 V2360  M760,1880 V2360  M800,1880 V2360  M840,1880 V2360  M880,1880 V2360  M920,1880 V2360  M960,1880 V2360  M1000,1880 V2360  M1040,1880 V2360  M1080,1880 V2360  M1120,1880 V2360  M1160,1880 V2360  M1200,1880 V2360  M1240,1880 V2360  M1280,1880 V2360  M1320,1880 V2360  M80,1910 H1360  M80,1940 H1360  M80,1970 H1360  M80,2000 H1360  M80,2030 H1360  M80,2060 H1360  M80,2090 H1360  M80,2120 H1360  M80,2150 H1360  M80,2180 H1360  M80,2210 H1360  M80,2240 H1360  M80,2270 H1360  M80,2300 H1360  M80,2330 H1360  "/>
<path d="M80,2370 H1360 V2850 H80 V2370 Z  M120,2370 V2850  M160,2370 V2850  M200,2370 V2850  M240,2370 V2850  M280,2370 V2850  M320,2370 V2850  M360,2370 V2850  M400,2370 V2850  M440,2370 V2850  M480,2370 V2850  M520,2370 V2850  M560,2370 V2850  M600,2370 V2850  M640,2370 V2850  M680,2370 V2850  M720,2370 V2850  M760,2370 V2850  M800,2370 V2850  M840,2370 V2850  M880,2370 V2850  M920,2370 V2850  M960,2370 V2850  M1000,2370 V2850  M1040,2370 V2850  M1080,2370 V2850  M1120,2370 V2850  M1160,2370 V2850  M1200,2370 V2850  M1240,2370 V2850  M1280,2370 V2850  M1320,2370 V2850  M80,2400 H1360  M80,2430 H1360  M80,2460 H1360  M80,2490 H1360  M80,2520 H1360  M80,2550 H1360  M80,2580 H1360  M80,2610 H1360  M80,2640 H1360  M80,2670 H1360  M80,2700 H1360  M80,2730 H1360  M80,2760 H1360  M80,2790 H1360  M80,2820 H1360  "/>
<path d="M80,2860 H1360 V3340 H80 V2860 Z  M120,2860 V3340  M160,2860 V3340  M200,2860 V3340  M240,2860 V3340  M280,2860 V3340  M320,2860 V3340  M360,2860 V3340  M400,2860 V3340  M440,2860 V3340  M480,2860 V3340  M520,2860 V3340  M560,2860 V3340  M600,2860 V3340  M640,2860 V3340  M680,2860 V3340  M720,2860 V3340  M760,2860 V3340  M800,2860 V3340  M840,2860 V3340  M880,2860 V3340  M920,2860 V3340  M960,2860 V3340  M1000,2860 V3340  M1040,2860 V3340  M1080,2860 V3340  M1120,2860 V3340  M1160,2860 V3340  M1200,2860 V3340  M1240,2860 V3340  M1280,2860 V3340  M1320,2860 V3340  M80,2890 H1360  M80,2920 H1360  M80,2950 H1360  M80,2980 H1360  M80,3010 H1360  M80,3040 H1360  M80,3070 H1360  M80,3100 H1360  M80,3130 H1360  M80,3160 H1360  M80,3190 H1360  M80,3220 H1360  M80,3250 H1360  M80,3280 H1360  M80,3310 H1360  "/>
<path d="M80,3350 H1360 V3590 H80 V3350 Z  M120,3350 V3590  M160,3350 V3590  M200,3350 V3590  M240,3350 V3590  M280,3350 V3590  M320,3350 V3590  M360,3350 V3590  M400,3350 V3590  M440,3350 V3590  M480,3350 V3590  M520,3350 V3590  M560,3350 V3590  M600,3350 V3590  M640,3350 V3590  M680,3350 V3590  M720,3350 V3590  M760,3350 V3590  M800,3350 V3590  M840,3350 V3590  M880,3350 V3590  M920,3350 V3590  M960,3350 V3590  M1000,3350 V3590  M1040,3350 V3590  M1080,3350 V3590  M1120,3350 V3590  M1160,3350 V3590  M1200,3350 V3590  M1240,3350 V3590  M1280,3350 V3590  M1320,3350 V3590  M80,3380 H1360  M80,3410 H1360  M80,3440 H1360  M80,3470 H1360  M80,3500 H1360  M80,3530 H1360  M80,3560 H1360  "/>
<polygon class="project" points="82,82 82,138 198,138 198,22 162,22 162,82 "/>
<text id="project_001_0" x="140" y="110">
Project1
</text>
<rect class="project" height="56" width="156" x="202" y="52"/>
<text id="project_002_0" x="280" y="80">
Project2
</text>
<polygon class="project" points="202,112 202,138 438,138 438,48 558,48 558,22 362,22 362,112 "/>
<text id="project_003_0" x="320" y="125">
Project3
</text>
</svg>