<svg height="2160" preserveAspectRatio="xMidYMid meet" viewBox="0 0 3840 2160" width="3840" xmlns="http://www.w3.org/2000/svg" xmlns:xlink="http://www.w3.org/1999/xlink">
<defs>
<style>

path{
    fill: green;
    stroke : black;
    stroke-width: 1;
    stroke-opacity : 1.0;
    fill-opacity : 0.5;
}

polygon{
    fill : green;
    stroke : blue;
    stroke-width : 1;
    stroke-opacity : 1.0;
    fill-opacity : 0.5;
}

rect{
    fill : white;
    stroke : black;
    stroke-width : 1;
    stroke-opacity : 1.0;
    fill-opacity : 0.5;
}

text{
    font-family : Arial;
    font-size : 7px;
    text-anchor : middle;
    fill : black;
    font-weight : normal;
    transform: translateY(0.3em);
}

.project{
    fill: url(#gradient_blue);
    fill-opacity : 1;
    rx:2px;
    ry:2px;
}

</style>
</defs>
<defs>
<linearGradient id="gradient_blue" x1="0%" x2="100%" y1="0%" y2="100%">
<stop offset="0%" style="stop-color:#6083CB;stop-opacity:1"/>
<stop offset="0%" style="stop-color:#3E70CA;stop-opacity:1"/>
<stop offset="100%" style="stop-color:#2E61BA;stop-opacity:1"/>
</linearGradient>
<linearGradient id="gradient_rainbow" x1="0%" x2="100%" y1="0%" y2="0%">
<stop offset="0%" stop-color="red"/>
<stop offset="14%" stop-color="orange"/>
<stop offset="28%" stop-color="yellow"/>
<stop offset="42%" stop-color="green"/>
<stop offset="56%" stop-color="blue"/>
<stop offset="70%" stop-color="indigo"/>
<stop offset="84%" stop-color="violet"/>
<stop offset="100%" stop-color="red"/>
</linearGradient>
<radialGradient cx="50%" cy="50%" fx="50%" fy="50%" id="gradient2" r="50%">
<stop offset="0%" style="stop-color:rgb(0,0,255);stop-opacity:1"/>
<stop offset="100%" style="stop-color:rgb(0,255,0);stop-opacity:1"/>
</radialGradient>
</defs>
<rect height="10" width="640" x="80" y="0"/>
<text x="400" y="5">
Aug
</text>
<rect height="10" width="640" x="720" y="0"/>
<text x="1040" y="5">
Sep
</text>
<rect height="10" width="40" x="80" y="10"/>
<text x="100" y="15">
16
</text>
<rect height="10" width="40" x="120" y="10"/>
<text x="140" y="15">
17
</text>
<rect height="10" width="40" x="160" y="10"/>
<text x="180" y="15">
18
</text>
<rect height="10" width="40" x="200" y="10"/>
<text x="220" y="15">
19
</text>
<rect height="10" width="40" x="240" y="10"/>
<text x="260" y="15">
20
</text>
<rect height="10" width="40" x="280" y="10"/>
<text x="300" y="15">
21
</text>
<rect height="10" width="40" x="320" y="10"/>
<text x="340" y="15">
22
</text>
<rect height="10" width="40" x="360" y="10"/>
<text x="380" y="15">
23
</text>
<rect height="10" width="40" x="400" y="10"/>
<text x="420" y="15">
24
</text>
<rect height="10" width="40" x="440" y="10"/>
<text x="460" y="15">
25
</text>
<rect height="10" width="40" x="480" y="10"/>
<text x="500" y="15">
26
</text>
<rect height="10" width="40" x="520" y="10"/>
<text x="540" y="15">
27
</text>
<rect height="10" width="40" x="560" y="10"/>
<text x="580" y="15">
28
</text>
<rect height="10" width="40" x="600" y="10"/>
<text x="620" y="15">
29
</text>
<rect height="10" width="40" x="640" y="10"/>
<text x="660" y="15">
30
</text>
<rect height="10" width="40" x="680" y="10"/>
<text x="700" y="15">
31
</text>
<rect height="10" width="40" x="720" y="10"/>
<text x="740" y="15">
01
</text>
<rect height="10" width="40" x="760" y="10"/>
<text x="780" y="15">
02
</text>
<rect height="10" width="40" x="800" y="10"/>
<text x="820" y="15">
03
</text>
<rect height="10" width="40" x="840" y="10"/>
<text x="860" y="15">
04
</text>
<rect height="10" width="40" x="880" y="10"/>
<text x="900" y="15">
05
</text>
<rect height="10" width="40" x="920" y="10"/>
<text x="940" y="15">
06
</text>
<rect height="10" width="40" x="960" y="10"/>
<text x="980" y="15">
07
</text>
<rect height="10" width="40" x="1000" y="10"/>
<text x="1020" y="15">
08
</text>
<rect height="10" width="40" x="1040" y="10"/>
<text x="1060" y="15">
09
</text>
<rect height="10" width="40" x="1080" y="10"/>
<text x="1100" y="15">
10
</text>
<rect height="10" width="40" x="1120" y="10"/>
<text x="1140" y="15">
11
</text>
<rect height="10" width="40" x="1160" y="10"/>
<text x="1180" y="15">
12
</text>
<rect height="10" width="40" x="1200" y="10"/>
<text x="1220" y="15">
13
</text>
<rect height="10" width="40" x="1240" y="10"/>
<text x="1260" y="15">
14
</text>
<rect height="10" width="40" x="1280" y="10"/>
<text x="1300" y="15">
15
</text>
<rect height="10" width="40" x="1320" y="10"/>
<text x="1340" y="15">
16
</text>
<rect height="90" width="40" x="0" y="20"/>
<text x="20" y="65">
F301-303
</text>
<rect height="120" width="40" x="0" y="112"/>
<text x="20" y="172">
F40x
</text>
<rect height="270" width="40" x="0" y="234"/>
<text x="20" y="369">
F50x
</text>
<rect height="30" width="40" x="40" y="20"/>
<text x="60" y="35">
F301
</text>
<rect height="30" width="40" x="40" y="50"/>
<text x="60" y="65">
F302
</text>
<rect height="30" width="40" x="40" y="80"/>
<text x="60" y="95">
F303
</text>
<rect height="30" width="40" x="40" y="112"/>
<text x="60" y="127">
F401
</text>
<rect height="30" width="40" x="40" y="142"/>
<text x="60" y="157">
F402
</text>
<rect height="30" width="40" x="40" y="172"/>
<text x="60" y="187">
F403
</text>
<rect height="30" width="40" x="40" y="202"/>
<text x="60" y="217">
F405
</text>
<rect height="30" width="40" x="40" y="234"/>
<text x="60" y="249">
F501
</text>
<rect height="30" width="40" x="40" y="264"/>
<text x="60" y="279">
F502
</text>
<rect height="30" width="40" x="40" y="294"/>
<text x="60" y="309">
F503
</text>
<rect height="30" width="40" x="40" y="324"/>
<text x="60" y="339">
F504
</text>
<rect height="30" width="40" x="40" y="354"/>
<text x="60" y="369">
F505
</text>
<rect height="30" width="40" x="40" y="384"/>
<text x="60" y="399">
F567
</text>
<rect height="30" width="40" x="40" y="414"/>
<text x="60" y="429">
F568
</text>
<rect height="30" width="40" x="40" y="444"/>
<text x="60" y="459">
F569
</text>
<rect height="30" width="40" x="40" y="474"/>
<text x="60" y="489">
F570
</text>
<path d="M80,20 H1360 V110 H80 V20 Z  M120,20 V110  M160,20 V110  M200,20 V110  M240,20 V110  M280,20 V110  M320,20 V110  M360,20 V110  M400,20 V110  M440,20 V110  M480,20 V110  M520,20 V110  M560,20 V110  M600,20 V110  M640,20 V110  M680,20 V110  M720,20 V110  M760,20 V110  M800,20 V110  M840,20 V110  M880,20 V110  M920,20 V110  M960,20 V110  M1000,20 V110  M1040,20 V110  M1080,20 V110  M1120,20 V110  M1160,20 V110  M1200,20 V110  M1240,20 V110  M1280,20 V110  M1320,20 V110  M80,50 H1360  M80,80 H1360  "/>
<path d="M80,112 H1360 V232 H80 V112 Z  M120,112 V232  M160,112 V232  M200,112 V232  M240,112 V232  M280,112 V232  M320,112 V232  M360,112 V232  M400,112 V232  M440,112 V232  M480,112 V232  M520,112 V232  M560,112 V232  M600,112 V232  M640,112 V232  M680,112 V232  M720,112 V232  M760,112 V232  M800,112 V232  M840,112 V232  M880,112 V232  M920,112 V232  M960,112 V232  M1000,112 V232  M1040,112 V232  M1080,112 V232  M1120,112 V232  M1160,112 V232  M1200,112 V232  M1240,112 V232  M1280,112 V232  M1320,112 V232  M80,142 H1360  M80,172 H1360  M80,202 H1360  "/>
<path d="M80,234 H1360 V504 H80 V234 Z  M120,234 V504  M160,234 V504  M200,234 V504  M240,234 V504  M280,234 V504  M320,234 V504  M360,234 V504  M400,234 V504  M440,234 V504  M480,234 V504  M520,234 V504  M560,234 V504  M600,234 V504  M640,234 V504  M680,234 V504  M720,234 V504  M760,234 V504  M800,234 V504  M840,234 V504  M880,234 V504  M920,234 V504  M960,234 V504  M1000,234 V504  M1040,234 V504  M1080,234 V504  M1120,234 V504  M1160,234 V504  M1200,234 V504  M1240,234 V504  M1280,234 V504  M1320,234 V504  M80,264 H1360  M80,294 H1360  M80,324 H1360  M80,354 H1360  M80,384 H1360  M80,414 H1360  M80,444 H1360  M80,474 H1360  "/>
<polygon class="project" points="82,82 82,230 198,230 198,22 162,22 162,82 "/>
<text id="project_001_0" x="140" y="156">
Project1
</text>
<rect class="project" height="56" width="156" x="202" y="52"/>
<text id="project_002_0" x="280" y="80">
Project2
</text>
<polygon class="project" points="202,204 202,230 438,230 438,48 558,48 558,22 362,22 362,204 "/>
<text id="project_003_0" x="320" y="217">
Project3
</text>
</svg>