<svg height="2160" preserveAspectRatio="xMidYMid meet" viewBox="0 0 3840 2160" width="3840" xmlns="http://www.w3.org/2000/svg" xmlns:xlink="http://www.w3.org/1999/xlink">
<defs>
<style>

path{
    fill: green;
    stroke : black;
    stroke-width: 1;
    stroke-opacity : 1.0;
    fill-opacity : 0.5;
}

polygon{
    fill : green;
    stroke : blue;
    stroke-width : 1;
    stroke-opacity : 1.0;
    fill-opacity : 0.5;
}

rect{
    fill : white;
    stroke : black;
    stroke-width : 1;
    stroke-opacity : 1.0;
    fill-opacity : 0.5;
}

text{
    font-family : Arial;
    font-size : 7px;
    text-anchor : middle;
    fill : black;
    font-weight : normal;
    transform: translateY(0.3em);
}

.project{
    fill: aquamarine;
    fill-opacity : 0.9;
    rx:2px;
    ry:2px;
}

</style>
</defs>
<rect height="10" width="400" x="60" y="0"/>
<text x="260" y="5">
Oct
</text>
<rect height="10" width="40" x="60" y="10"/>
<text x="80" y="15">
1
</text>
<rect height="10" width="40" x="100" y="10"/>
<text x="120" y="15">
2
</text>
<rect height="10" width="40" x="140" y="10"/>
<text x="160" y="15">
3
</text>
<rect height="10" width="40" x="180" y="10"/>
<text x="200" y="15">
4
</text>
<rect height="10" width="40" x="220" y="10"/>
<text x="240" y="15">
5
</text>
<rect height="10" width="40" x="260" y="10"/>
<text x="280" y="15">
6
</text>
<rect height="10" width="40" x="300" y="10"/>
<text x="320" y="15">
7
</text>
<rect height="10" width="40" x="340" y="10"/>
<text x="360" y="15">
8
</text>
<rect height="10" width="40" x="380" y="10"/>
<text x="400" y="15">
9
</text>
<rect height="10" width="40" x="420" y="10"/>
<text x="440" y="15">
10
</text>
<rect height="90" width="30" x="0" y="22"/>
<text x="15" y="67">
F301-3
</text>
<rect height="30" width="30" x="30" y="22"/>
<text x="45" y="37">
F301
</text>
<rect height="30" width="30" x="30" y="52"/>
<text x="45" y="67">
F302
</text>
<rect height="30" width="30" x="30" y="82"/>
<text x="45" y="97">
F303
</text>
<path d="M60,22 H1260 V112 H60 V22 Z  M100,22 V112  M140,22 V112  M180,22 V112  M220,22 V112  M260,22 V112  M300,22 V112  M340,22 V112  M380,22 V112  M420,22 V112  M460,22 V112  M500,22 V112  M540,22 V112  M580,22 V112  M620,22 V112  M660,22 V112  M700,22 V112  M740,22 V112  M780,22 V112  M820,22 V112  M860,22 V112  M900,22 V112  M940,22 V112  M980,22 V112  M1020,22 V112  M1060,22 V112  M1100,22 V112  M1140,22 V112  M1180,22 V112  M1220,22 V112  M60,52 H1260  M60,82 H1260  "/>
<rect height="150" width="30" x="0" y="114"/>
<text x="15" y="189">
F401-3
</text>
<rect height="30" width="30" x="30" y="114"/>
<text x="45" y="129">
F401
</text>
<rect height="30" width="30" x="30" y="144"/>
<text x="45" y="159">
F402
</text>
<rect height="30" width="30" x="30" y="174"/>
<text x="45" y="189">
F403
</text>
<path d="M60,114 H1260 V294 H60 V114 Z  M100,114 V294  M140,114 V294  M180,114 V294  M220,114 V294  M260,114 V294  M300,114 V294  M340,114 V294  M380,114 V294  M420,114 V294  M460,114 V294  M500,114 V294  M540,114 V294  M580,114 V294  M620,114 V294  M660,114 V294  M700,114 V294  M740,114 V294  M780,114 V294  M820,114 V294  M860,114 V294  M900,114 V294  M940,114 V294  M980,114 V294  M1020,114 V294  M1060,114 V294  M1100,114 V294  M1140,114 V294  M1180,114 V294  M1220,114 V294  M60,144 H1260  M60,174 H1260  M60,204 H1260  M60,234 H1260  M60,264 H1260  "/>
<polygon class="project" points="62,84 62,142 178,142 178,24 142,24 142,84 "/>
<text id="project_001_0" x="120" y="113">
Project1
</text>
<rect class="project" height="56" width="156" x="182" y="54"/>
<text id="project_002_0" x="260" y="82">
Project2
</text>
</svg>