<svg height="3750" preserveAspectRatio="xMinYMim meet" viewBox="0 0 3900 3750" width="3900" xmlns="http://www.w3.org/2000/svg" xmlns:xlink="http://www.w3.org/1999/xlink">
<defs>
<style>

path{
    fill: green;
    stroke : black;
    stroke-width: 1;
    stroke-opacity : 1.0;
    fill-opacity : 0.5;
}

polygon{
    fill : green;
    stroke : blue;
    stroke-width : 1;
    stroke-opacity : 1.0;
    fill-opacity : 0.5;
}

rect{
    fill : white;
    stroke : black;
    stroke-width : 1;
    stroke-opacity : 1.0;
    fill-opacity : 0.5;
}

text{
    font-family: 'Microsoft YaHei Black', sans-serif;
    font-size : 10px;
    text-anchor : middle;
    fill : black;
    font-weight : normal;
    transform: translateY(0.3em);
}

.project{
    fill: url(#gradient_blue);
    fill-opacity : 1;
    rx:2px;
    ry:2px;
}

.project-text{
    font-family: 'Microsoft YaHei Black', sans-serif;
    font-size: 12px;
    text-anchor: middle;
    fill: white;
}

</style>
</defs>
<defs>
<linearGradient id="gradient_blue" x1="0%" x2="100%" y1="0%" y2="100%">
<stop offset="0%" style="stop-color:#6083CB;stop-opacity:1"/>
<stop offset="0%" style="stop-color:#3E70CA;stop-opacity:1"/>
<stop offset="100%" style="stop-color:#2E61BA;stop-opacity:1"/>
</linearGradient>
<linearGradient id="gradient_rainbow" x1="0%" x2="100%" y1="0%" y2="0%">
<stop offset="0%" stop-color="red"/>
<stop offset="14%" stop-color="orange"/>
<stop offset="28%" stop-color="yellow"/>
<stop offset="42%" stop-color="green"/>
<stop offset="56%" stop-color="blue"/>
<stop offset="70%" stop-color="indigo"/>
<stop offset="84%" stop-color="violet"/>
<stop offset="100%" stop-color="red"/>
</linearGradient>
<radialGradient cx="50%" cy="50%" fx="50%" fy="50%" id="gradient2" r="50%">
<stop offset="0%" style="stop-color:rgb(0,0,255);stop-opacity:1"/>
<stop offset="100%" style="stop-color:rgb(0,255,0);stop-opacity:1"/>
</radialGradient>
</defs>
<rect height="40" width="1240" x="80" y="0"/>
<text x="700" y="20">
Jul
</text>
<rect height="40" width="1240" x="1320" y="0"/>
<text x="1940" y="20">
Aug
</text>
<rect height="40" width="1200" x="2560" y="0"/>
<text x="3160" y="20">
Sep
</text>
<rect height="40" width="40" x="3760" y="0"/>
<text x="3780" y="20">
Oct
</text>
<rect height="40" width="40" x="80" y="40"/>
<text x="100" y="60">
01
</text>
<rect height="40" width="40" x="120" y="40"/>
<text x="140" y="60">
02
</text>
<rect height="40" width="40" x="160" y="40"/>
<text x="180" y="60">
03
</text>
<rect height="40" width="40" x="200" y="40"/>
<text x="220" y="60">
04
</text>
<rect height="40" width="40" x="240" y="40"/>
<text x="260" y="60">
05
</text>
<rect height="40" width="40" x="280" y="40"/>
<text x="300" y="60">
06
</text>
<rect height="40" width="40" x="320" y="40"/>
<text x="340" y="60">
07
</text>
<rect height="40" width="40" x="360" y="40"/>
<text x="380" y="60">
08
</text>
<rect height="40" width="40" x="400" y="40"/>
<text x="420" y="60">
09
</text>
<rect height="40" width="40" x="440" y="40"/>
<text x="460" y="60">
10
</text>
<rect height="40" width="40" x="480" y="40"/>
<text x="500" y="60">
11
</text>
<rect height="40" width="40" x="520" y="40"/>
<text x="540" y="60">
12
</text>
<rect height="40" width="40" x="560" y="40"/>
<text x="580" y="60">
13
</text>
<rect height="40" width="40" x="600" y="40"/>
<text x="620" y="60">
14
</text>
<rect height="40" width="40" x="640" y="40"/>
<text x="660" y="60">
15
</text>
<rect height="40" width="40" x="680" y="40"/>
<text x="700" y="60">
16
</text>
<rect height="40" width="40" x="720" y="40"/>
<text x="740" y="60">
17
</text>
<rect height="40" width="40" x="760" y="40"/>
<text x="780" y="60">
18
</text>
<rect height="40" width="40" x="800" y="40"/>
<text x="820" y="60">
19
</text>
<rect height="40" width="40" x="840" y="40"/>
<text x="860" y="60">
20
</text>
<rect height="40" width="40" x="880" y="40"/>
<text x="900" y="60">
21
</text>
<rect height="40" width="40" x="920" y="40"/>
<text x="940" y="60">
22
</text>
<rect height="40" width="40" x="960" y="40"/>
<text x="980" y="60">
23
</text>
<rect height="40" width="40" x="1000" y="40"/>
<text x="1020" y="60">
24
</text>
<rect height="40" width="40" x="1040" y="40"/>
<text x="1060" y="60">
25
</text>
<rect height="40" width="40" x="1080" y="40"/>
<text x="1100" y="60">
26
</text>
<rect height="40" width="40" x="1120" y="40"/>
<text x="1140" y="60">
27
</text>
<rect height="40" width="40" x="1160" y="40"/>
<text x="1180" y="60">
28
</text>
<rect height="40" width="40" x="1200" y="40"/>
<text x="1220" y="60">
29
</text>
<rect height="40" width="40" x="1240" y="40"/>
<text x="1260" y="60">
30
</text>
<rect height="40" width="40" x="1280" y="40"/>
<text x="1300" y="60">
31
</text>
<rect height="40" width="40" x="1320" y="40"/>
<text x="1340" y="60">
01
</text>
<rect height="40" width="40" x="1360" y="40"/>
<text x="1380" y="60">
02
</text>
<rect height="40" width="40" x="1400" y="40"/>
<text x="1420" y="60">
03
</text>
<rect height="40" width="40" x="1440" y="40"/>
<text x="1460" y="60">
04
</text>
<rect height="40" width="40" x="1480" y="40"/>
<text x="1500" y="60">
05
</text>
<rect height="40" width="40" x="1520" y="40"/>
<text x="1540" y="60">
06
</text>
<rect height="40" width="40" x="1560" y="40"/>
<text x="1580" y="60">
07
</text>
<rect height="40" width="40" x="1600" y="40"/>
<text x="1620" y="60">
08
</text>
<rect height="40" width="40" x="1640" y="40"/>
<text x="1660" y="60">
09
</text>
<rect height="40" width="40" x="1680" y="40"/>
<text x="1700" y="60">
10
</text>
<rect height="40" width="40" x="1720" y="40"/>
<text x="1740" y="60">
11
</text>
<rect height="40" width="40" x="1760" y="40"/>
<text x="1780" y="60">
12
</text>
<rect height="40" width="40" x="1800" y="40"/>
<text x="1820" y="60">
13
</text>
<rect height="40" width="40" x="1840" y="40"/>
<text x="1860" y="60">
14
</text>
<rect height="40" width="40" x="1880" y="40"/>
<text x="1900" y="60">
15
</text>
<rect height="40" width="40" x="1920" y="40"/>
<text x="1940" y="60">
16
</text>
<rect height="40" width="40" x="1960" y="40"/>
<text x="1980" y="60">
17
</text>
<rect height="40" width="40" x="2000" y="40"/>
<text x="2020" y="60">
18
</text>
<rect height="40" width="40" x="2040" y="40"/>
<text x="2060" y="60">
19
</text>
<rect height="40" width="40" x="2080" y="40"/>
<text x="2100" y="60">
20
</text>
<rect height="40" width="40" x="2120" y="40"/>
<text x="2140" y="60">
21
</text>
<rect height="40" width="40" x="2160" y="40"/>
<text x="2180" y="60">
22
</text>
<rect height="40" width="40" x="2200" y="40"/>
<text x="2220" y="60">
23
</text>
<rect height="40" width="40" x="2240" y="40"/>
<text x="2260" y="60">
24
</text>
<rect height="40" width="40" x="2280" y="40"/>
<text x="2300" y="60">
25
</text>
<rect height="40" width="40" x="2320" y="40"/>
<text x="2340" y="60">
26
</text>
<rect height="40" width="40" x="2360" y="40"/>
<text x="2380" y="60">
27
</text>
<rect height="40" width="40" x="2400" y="40"/>
<text x="2420" y="60">
28
</text>
<rect height="40" width="40" x="2440" y="40"/>
<text x="2460" y="60">
29
</text>
<rect height="40" width="40" x="2480" y="40"/>
<text x="2500" y="60">
30
</text>
<rect height="40" width="40" x="2520" y="40"/>
<text x="2540" y="60">
31
</text>
<rect height="40" width="40" x="2560" y="40"/>
<text x="2580" y="60">
01
</text>
<rect height="40" width="40" x="2600" y="40"/>
<text x="2620" y="60">
02
</text>
<rect height="40" width="40" x="2640" y="40"/>
<text x="2660" y="60">
03
</text>
<rect height="40" width="40" x="2680" y="40"/>
<text x="2700" y="60">
04
</text>
<rect height="40" width="40" x="2720" y="40"/>
<text x="2740" y="60">
05
</text>
<rect height="40" width="40" x="2760" y="40"/>
<text x="2780" y="60">
06
</text>
<rect height="40" width="40" x="2800" y="40"/>
<text x="2820" y="60">
07
</text>
<rect height="40" width="40" x="2840" y="40"/>
<text x="2860" y="60">
08
</text>
<rect height="40" width="40" x="2880" y="40"/>
<text x="2900" y="60">
09
</text>
<rect height="40" width="40" x="2920" y="40"/>
<text x="2940" y="60">
10
</text>
<rect height="40" width="40" x="2960" y="40"/>
<text x="2980" y="60">
11
</text>
<rect height="40" width="40" x="3000" y="40"/>
<text x="3020" y="60">
12
</text>
<rect height="40" width="40" x="3040" y="40"/>
<text x="3060" y="60">
13
</text>
<rect height="40" width="40" x="3080" y="40"/>
<text x="3100" y="60">
14
</text>
<rect height="40" width="40" x="3120" y="40"/>
<text x="3140" y="60">
15
</text>
<rect height="40" width="40" x="3160" y="40"/>
<text x="3180" y="60">
16
</text>
<rect height="40" width="40" x="3200" y="40"/>
<text x="3220" y="60">
17
</text>
<rect height="40" width="40" x="3240" y="40"/>
<text x="3260" y="60">
18
</text>
<rect height="40" width="40" x="3280" y="40"/>
<text x="3300" y="60">
19
</text>
<rect height="40" width="40" x="3320" y="40"/>
<text x="3340" y="60">
20
</text>
<rect height="40" width="40" x="3360" y="40"/>
<text x="3380" y="60">
21
</text>
<rect height="40" width="40" x="3400" y="40"/>
<text x="3420" y="60">
22
</text>
<rect height="40" width="40" x="3440" y="40"/>
<text x="3460" y="60">
23
</text>
<rect height="40" width="40" x="3480" y="40"/>
<text x="3500" y="60">
24
</text>
<rect height="40" width="40" x="3520" y="40"/>
<text x="3540" y="60">
25
</text>
<rect height="40" width="40" x="3560" y="40"/>
<text x="3580" y="60">
26
</text>
<rect height="40" width="40" x="3600" y="40"/>
<text x="3620" y="60">
27
</text>
<rect height="40" width="40" x="3640" y="40"/>
<text x="3660" y="60">
28
</text>
<rect height="40" width="40" x="3680" y="40"/>
<text x="3700" y="60">
29
</text>
<rect height="40" width="40" x="3720" y="40"/>
<text x="3740" y="60">
30
</text>
<rect height="40" width="40" x="3760" y="40"/>
<text x="3780" y="60">
01
</text>
<rect height="120" width="40" x="0" y="80"/>
<text x="20" y="140">
CPU 64
</text>
<rect height="120" width="40" x="0" y="210"/>
<text x="20" y="270">
GPU 64
</text>
<rect height="120" width="40" x="0" y="340"/>
<text x="20" y="400">
GPU 64
</text>
<rect height="480" width="40" x="0" y="470"/>
<text x="20" y="710">
CPU 
</text>
<rect height="480" width="40" x="0" y="960"/>
<text x="20" y="1200">
CPU 
</text>
<rect height="480" width="40" x="0" y="1450"/>
<text x="20" y="1690">
CPU 
</text>
<rect height="480" width="40" x="0" y="1940"/>
<text x="20" y="2180">
CPU 
</text>
<rect height="480" width="40" x="0" y="2430"/>
<text x="20" y="2670">
CPU 
</text>
<rect height="480" width="40" x="0" y="2920"/>
<text x="20" y="3160">
CPU 
</text>
<rect height="240" width="40" x="0" y="3410"/>
<text x="20" y="3530">
CPU 
</text>
<rect height="30" width="40" x="40" y="80"/>
<text x="60" y="95">
F283
</text>
<rect height="30" width="40" x="40" y="110"/>
<text x="60" y="125">
F284
</text>
<rect height="30" width="40" x="40" y="140"/>
<text x="60" y="155">
F285
</text>
<rect height="30" width="40" x="40" y="170"/>
<text x="60" y="185">
F286
</text>
<rect height="30" width="40" x="40" y="210"/>
<text x="60" y="225">
F319
</text>
<rect height="30" width="40" x="40" y="240"/>
<text x="60" y="255">
F320
</text>
<rect height="30" width="40" x="40" y="270"/>
<text x="60" y="285">
F321
</text>
<rect height="30" width="40" x="40" y="300"/>
<text x="60" y="315">
F322
</text>
<rect height="30" width="40" x="40" y="340"/>
<text x="60" y="355">
F413
</text>
<rect height="30" width="40" x="40" y="370"/>
<text x="60" y="385">
F414
</text>
<rect height="30" width="40" x="40" y="400"/>
<text x="60" y="415">
F415
</text>
<rect height="30" width="40" x="40" y="430"/>
<text x="60" y="445">
F416
</text>
<rect height="30" width="40" x="40" y="470"/>
<text x="60" y="485">
F303
</text>
<rect height="30" width="40" x="40" y="500"/>
<text x="60" y="515">
F304
</text>
<rect height="30" width="40" x="40" y="530"/>
<text x="60" y="545">
F305
</text>
<rect height="30" width="40" x="40" y="560"/>
<text x="60" y="575">
F306
</text>
<rect height="30" width="40" x="40" y="590"/>
<text x="60" y="605">
F307
</text>
<rect height="30" width="40" x="40" y="620"/>
<text x="60" y="635">
F308
</text>
<rect height="30" width="40" x="40" y="650"/>
<text x="60" y="665">
F309
</text>
<rect height="30" width="40" x="40" y="680"/>
<text x="60" y="695">
F310
</text>
<rect height="30" width="40" x="40" y="710"/>
<text x="60" y="725">
F311
</text>
<rect height="30" width="40" x="40" y="740"/>
<text x="60" y="755">
F312
</text>
<rect height="30" width="40" x="40" y="770"/>
<text x="60" y="785">
F313
</text>
<rect height="30" width="40" x="40" y="800"/>
<text x="60" y="815">
F314
</text>
<rect height="30" width="40" x="40" y="830"/>
<text x="60" y="845">
F315
</text>
<rect height="30" width="40" x="40" y="860"/>
<text x="60" y="875">
F316
</text>
<rect height="30" width="40" x="40" y="890"/>
<text x="60" y="905">
F317
</text>
<rect height="30" width="40" x="40" y="920"/>
<text x="60" y="935">
F318
</text>
<rect height="30" width="40" x="40" y="960"/>
<text x="60" y="975">
F324
</text>
<rect height="30" width="40" x="40" y="990"/>
<text x="60" y="1005">
F325
</text>
<rect height="30" width="40" x="40" y="1020"/>
<text x="60" y="1035">
F326
</text>
<rect height="30" width="40" x="40" y="1050"/>
<text x="60" y="1065">
F327
</text>
<rect height="30" width="40" x="40" y="1080"/>
<text x="60" y="1095">
F328
</text>
<rect height="30" width="40" x="40" y="1110"/>
<text x="60" y="1125">
F329
</text>
<rect height="30" width="40" x="40" y="1140"/>
<text x="60" y="1155">
F330
</text>
<rect height="30" width="40" x="40" y="1170"/>
<text x="60" y="1185">
F331
</text>
<rect height="30" width="40" x="40" y="1200"/>
<text x="60" y="1215">
F332
</text>
<rect height="30" width="40" x="40" y="1230"/>
<text x="60" y="1245">
F333
</text>
<rect height="30" width="40" x="40" y="1260"/>
<text x="60" y="1275">
F334
</text>
<rect height="30" width="40" x="40" y="1290"/>
<text x="60" y="1305">
F335
</text>
<rect height="30" width="40" x="40" y="1320"/>
<text x="60" y="1335">
F336
</text>
<rect height="30" width="40" x="40" y="1350"/>
<text x="60" y="1365">
F337
</text>
<rect height="30" width="40" x="40" y="1380"/>
<text x="60" y="1395">
F338
</text>
<rect height="30" width="40" x="40" y="1410"/>
<text x="60" y="1425">
F339
</text>
<rect height="30" width="40" x="40" y="1450"/>
<text x="60" y="1465">
F340
</text>
<rect height="30" width="40" x="40" y="1480"/>
<text x="60" y="1495">
F341
</text>
<rect height="30" width="40" x="40" y="1510"/>
<text x="60" y="1525">
F342
</text>
<rect height="30" width="40" x="40" y="1540"/>
<text x="60" y="1555">
F343
</text>
<rect height="30" width="40" x="40" y="1570"/>
<text x="60" y="1585">
F344
</text>
<rect height="30" width="40" x="40" y="1600"/>
<text x="60" y="1615">
F345
</text>
<rect height="30" width="40" x="40" y="1630"/>
<text x="60" y="1645">
F346
</text>
<rect height="30" width="40" x="40" y="1660"/>
<text x="60" y="1675">
F347
</text>
<rect height="30" width="40" x="40" y="1690"/>
<text x="60" y="1705">
F348
</text>
<rect height="30" width="40" x="40" y="1720"/>
<text x="60" y="1735">
F349
</text>
<rect height="30" width="40" x="40" y="1750"/>
<text x="60" y="1765">
F350
</text>
<rect height="30" width="40" x="40" y="1780"/>
<text x="60" y="1795">
F351
</text>
<rect height="30" width="40" x="40" y="1810"/>
<text x="60" y="1825">
F352
</text>
<rect height="30" width="40" x="40" y="1840"/>
<text x="60" y="1855">
F353
</text>
<rect height="30" width="40" x="40" y="1870"/>
<text x="60" y="1885">
F354
</text>
<rect height="30" width="40" x="40" y="1900"/>
<text x="60" y="1915">
F355
</text>
<rect height="30" width="40" x="40" y="1940"/>
<text x="60" y="1955">
F356
</text>
<rect height="30" width="40" x="40" y="1970"/>
<text x="60" y="1985">
F357
</text>
<rect height="30" width="40" x="40" y="2000"/>
<text x="60" y="2015">
F358
</text>
<rect height="30" width="40" x="40" y="2030"/>
<text x="60" y="2045">
F359
</text>
<rect height="30" width="40" x="40" y="2060"/>
<text x="60" y="2075">
F360
</text>
<rect height="30" width="40" x="40" y="2090"/>
<text x="60" y="2105">
F361
</text>
<rect height="30" width="40" x="40" y="2120"/>
<text x="60" y="2135">
F362
</text>
<rect height="30" width="40" x="40" y="2150"/>
<text x="60" y="2165">
F363
</text>
<rect height="30" width="40" x="40" y="2180"/>
<text x="60" y="2195">
F364
</text>
<rect height="30" width="40" x="40" y="2210"/>
<text x="60" y="2225">
F365
</text>
<rect height="30" width="40" x="40" y="2240"/>
<text x="60" y="2255">
F366
</text>
<rect height="30" width="40" x="40" y="2270"/>
<text x="60" y="2285">
F367
</text>
<rect height="30" width="40" x="40" y="2300"/>
<text x="60" y="2315">
F368
</text>
<rect height="30" width="40" x="40" y="2330"/>
<text x="60" y="2345">
F369
</text>
<rect height="30" width="40" x="40" y="2360"/>
<text x="60" y="2375">
F370
</text>
<rect height="30" width="40" x="40" y="2390"/>
<text x="60" y="2405">
F371
</text>
<rect height="30" width="40" x="40" y="2430"/>
<text x="60" y="2445">
F373
</text>
<rect height="30" width="40" x="40" y="2460"/>
<text x="60" y="2475">
F374
</text>
<rect height="30" width="40" x="40" y="2490"/>
<text x="60" y="2505">
F375
</text>
<rect height="30" width="40" x="40" y="2520"/>
<text x="60" y="2535">
F376
</text>
<rect height="30" width="40" x="40" y="2550"/>
<text x="60" y="2565">
F377
</text>
<rect height="30" width="40" x="40" y="2580"/>
<text x="60" y="2595">
F378
</text>
<rect height="30" width="40" x="40" y="2610"/>
<text x="60" y="2625">
F379
</text>
<rect height="30" width="40" x="40" y="2640"/>
<text x="60" y="2655">
F380
</text>
<rect height="30" width="40" x="40" y="2670"/>
<text x="60" y="2685">
F381
</text>
<rect height="30" width="40" x="40" y="2700"/>
<text x="60" y="2715">
F382
</text>
<rect height="30" width="40" x="40" y="2730"/>
<text x="60" y="2745">
F383
</text>
<rect height="30" width="40" x="40" y="2760"/>
<text x="60" y="2775">
F384
</text>
<rect height="30" width="40" x="40" y="2790"/>
<text x="60" y="2805">
F385
</text>
<rect height="30" width="40" x="40" y="2820"/>
<text x="60" y="2835">
F386
</text>
<rect height="30" width="40" x="40" y="2850"/>
<text x="60" y="2865">
F387
</text>
<rect height="30" width="40" x="40" y="2880"/>
<text x="60" y="2895">
F388
</text>
<rect height="30" width="40" x="40" y="2920"/>
<text x="60" y="2935">
F389
</text>
<rect height="30" width="40" x="40" y="2950"/>
<text x="60" y="2965">
F390
</text>
<rect height="30" width="40" x="40" y="2980"/>
<text x="60" y="2995">
F391
</text>
<rect height="30" width="40" x="40" y="3010"/>
<text x="60" y="3025">
F392
</text>
<rect height="30" width="40" x="40" y="3040"/>
<text x="60" y="3055">
F393
</text>
<rect height="30" width="40" x="40" y="3070"/>
<text x="60" y="3085">
F394
</text>
<rect height="30" width="40" x="40" y="3100"/>
<text x="60" y="3115">
F395
</text>
<rect height="30" width="40" x="40" y="3130"/>
<text x="60" y="3145">
F396
</text>
<rect height="30" width="40" x="40" y="3160"/>
<text x="60" y="3175">
F397
</text>
<rect height="30" width="40" x="40" y="3190"/>
<text x="60" y="3205">
F398
</text>
<rect height="30" width="40" x="40" y="3220"/>
<text x="60" y="3235">
F399
</text>
<rect height="30" width="40" x="40" y="3250"/>
<text x="60" y="3265">
F400
</text>
<rect height="30" width="40" x="40" y="3280"/>
<text x="60" y="3295">
F401
</text>
<rect height="30" width="40" x="40" y="3310"/>
<text x="60" y="3325">
F402
</text>
<rect height="30" width="40" x="40" y="3340"/>
<text x="60" y="3355">
F403
</text>
<rect height="30" width="40" x="40" y="3370"/>
<text x="60" y="3385">
F404
</text>
<rect height="30" width="40" x="40" y="3410"/>
<text x="60" y="3425">
F405
</text>
<rect height="30" width="40" x="40" y="3440"/>
<text x="60" y="3455">
F406
</text>
<rect height="30" width="40" x="40" y="3470"/>
<text x="60" y="3485">
F407
</text>
<rect height="30" width="40" x="40" y="3500"/>
<text x="60" y="3515">
F408
</text>
<rect height="30" width="40" x="40" y="3530"/>
<text x="60" y="3545">
F409
</text>
<rect height="30" width="40" x="40" y="3560"/>
<text x="60" y="3575">
F410
</text>
<rect height="30" width="40" x="40" y="3590"/>
<text x="60" y="3605">
F411
</text>
<rect height="30" width="40" x="40" y="3620"/>
<text x="60" y="3635">
F412
</text>
<path d="M80,80 H3800 V200 H80 V80 Z  M120,80 V200  M160,80 V200  M200,80 V200  M240,80 V200  M280,80 V200  M320,80 V200  M360,80 V200  M400,80 V200  M440,80 V200  M480,80 V200  M520,80 V200  M560,80 V200  M600,80 V200  M640,80 V200  M680,80 V200  M720,80 V200  M760,80 V200  M800,80 V200  M840,80 V200  M880,80 V200  M920,80 V200  M960,80 V200  M1000,80 V200  M1040,80 V200  M1080,80 V200  M1120,80 V200  M1160,80 V200  M1200,80 V200  M1240,80 V200  M1280,80 V200  M1320,80 V200  M1360,80 V200  M1400,80 V200  M1440,80 V200  M1480,80 V200  M1520,80 V200  M1560,80 V200  M1600,80 V200  M1640,80 V200  M1680,80 V200  M1720,80 V200  M1760,80 V200  M1800,80 V200  M1840,80 V200  M1880,80 V200  M1920,80 V200  M1960,80 V200  M2000,80 V200  M2040,80 V200  M2080,80 V200  M2120,80 V200  M2160,80 V200  M2200,80 V200  M2240,80 V200  M2280,80 V200  M2320,80 V200  M2360,80 V200  M2400,80 V200  M2440,80 V200  M2480,80 V200  M2520,80 V200  M2560,80 V200  M2600,80 V200  M2640,80 V200  M2680,80 V200  M2720,80 V200  M2760,80 V200  M2800,80 V200  M2840,80 V200  M2880,80 V200  M2920,80 V200  M2960,80 V200  M3000,80 V200  M3040,80 V200  M3080,80 V200  M3120,80 V200  M3160,80 V200  M3200,80 V200  M3240,80 V200  M3280,80 V200  M3320,80 V200  M3360,80 V200  M3400,80 V200  M3440,80 V200  M3480,80 V200  M3520,80 V200  M3560,80 V200  M3600,80 V200  M3640,80 V200  M3680,80 V200  M3720,80 V200  M3760,80 V200  M80,110 H3800  M80,140 H3800  M80,170 H3800  "/>
<path d="M80,210 H3800 V330 H80 V210 Z  M120,210 V330  M160,210 V330  M200,210 V330  M240,210 V330  M280,210 V330  M320,210 V330  M360,210 V330  M400,210 V330  M440,210 V330  M480,210 V330  M520,210 V330  M560,210 V330  M600,210 V330  M640,210 V330  M680,210 V330  M720,210 V330  M760,210 V330  M800,210 V330  M840,210 V330  M880,210 V330  M920,210 V330  M960,210 V330  M1000,210 V330  M1040,210 V330  M1080,210 V330  M1120,210 V330  M1160,210 V330  M1200,210 V330  M1240,210 V330  M1280,210 V330  M1320,210 V330  M1360,210 V330  M1400,210 V330  M1440,210 V330  M1480,210 V330  M1520,210 V330  M1560,210 V330  M1600,210 V330  M1640,210 V330  M1680,210 V330  M1720,210 V330  M1760,210 V330  M1800,210 V330  M1840,210 V330  M1880,210 V330  M1920,210 V330  M1960,210 V330  M2000,210 V330  M2040,210 V330  M2080,210 V330  M2120,210 V330  M2160,210 V330  M2200,210 V330  M2240,210 V330  M2280,210 V330  M2320,210 V330  M2360,210 V330  M2400,210 V330  M2440,210 V330  M2480,210 V330  M2520,210 V330  M2560,210 V330  M2600,210 V330  M2640,210 V330  M2680,210 V330  M2720,210 V330  M2760,210 V330  M2800,210 V330  M2840,210 V330  M2880,210 V330  M2920,210 V330  M2960,210 V330  M3000,210 V330  M3040,210 V330  M3080,210 V330  M3120,210 V330  M3160,210 V330  M3200,210 V330  M3240,210 V330  M3280,210 V330  M3320,210 V330  M3360,210 V330  M3400,210 V330  M3440,210 V330  M3480,210 V330  M3520,210 V330  M3560,210 V330  M3600,210 V330  M3640,210 V330  M3680,210 V330  M3720,210 V330  M3760,210 V330  M80,240 H3800  M80,270 H3800  M80,300 H3800  "/>
<path d="M80,340 H3800 V460 H80 V340 Z  M120,340 V460  M160,340 V460  M200,340 V460  M240,340 V460  M280,340 V460  M320,340 V460  M360,340 V460  M400,340 V460  M440,340 V460  M480,340 V460  M520,340 V460  M560,340 V460  M600,340 V460  M640,340 V460  M680,340 V460  M720,340 V460  M760,340 V460  M800,340 V460  M840,340 V460  M880,340 V460  M920,340 V460  M960,340 V460  M1000,340 V460  M1040,340 V460  M1080,340 V460  M1120,340 V460  M1160,340 V460  M1200,340 V460  M1240,340 V460  M1280,340 V460  M1320,340 V460  M1360,340 V460  M1400,340 V460  M1440,340 V460  M1480,340 V460  M1520,340 V460  M1560,340 V460  M1600,340 V460  M1640,340 V460  M1680,340 V460  M1720,340 V460  M1760,340 V460  M1800,340 V460  M1840,340 V460  M1880,340 V460  M1920,340 V460  M1960,340 V460  M2000,340 V460  M2040,340 V460  M2080,340 V460  M2120,340 V460  M2160,340 V460  M2200,340 V460  M2240,340 V460  M2280,340 V460  M2320,340 V460  M2360,340 V460  M2400,340 V460  M2440,340 V460  M2480,340 V460  M2520,340 V460  M2560,340 V460  M2600,340 V460  M2640,340 V460  M2680,340 V460  M2720,340 V460  M2760,340 V460  M2800,340 V460  M2840,340 V460  M2880,340 V460  M2920,340 V460  M2960,340 V460  M3000,340 V460  M3040,340 V460  M3080,340 V460  M3120,340 V460  M3160,340 V460  M3200,340 V460  M3240,340 V460  M3280,340 V460  M3320,340 V460  M3360,340 V460  M3400,340 V460  M3440,340 V460  M3480,340 V460  M3520,340 V460  M3560,340 V460  M3600,340 V460  M3640,340 V460  M3680,340 V460  M3720,340 V460  M3760,340 V460  M80,370 H3800  M80,400 H3800  M80,430 H3800  "/>
<path d="M80,470 H3800 V950 H80 V470 Z  M120,470 V950  M160,470 V950  M200,470 V950  M240,470 V950  M280,470 V950  M320,470 V950  M360,470 V950  M400,470 V950  M440,470 V950  M480,470 V950  M520,470 V950  M560,470 V950  M600,470 V950  M640,470 V950  M680,470 V950  M720,470 V950  M760,470 V950  M800,470 V950  M840,470 V950  M880,470 V950  M920,470 V950  M960,470 V950  M1000,470 V950  M1040,470 V950  M1080,470 V950  M1120,470 V950  M1160,470 V950  M1200,470 V950  M1240,470 V950  M1280,470 V950  M1320,470 V950  M1360,470 V950  M1400,470 V950  M1440,470 V950  M1480,470 V950  M1520,470 V950  M1560,470 V950  M1600,470 V950  M1640,470 V950  M1680,470 V950  M1720,470 V950  M1760,470 V950  M1800,470 V950  M1840,470 V950  M1880,470 V950  M1920,470 V950  M1960,470 V950  M2000,470 V950  M2040,470 V950  M2080,470 V950  M2120,470 V950  M2160,470 V950  M2200,470 V950  M2240,470 V950  M2280,470 V950  M2320,470 V950  M2360,470 V950  M2400,470 V950  M2440,470 V950  M2480,470 V950  M2520,470 V950  M2560,470 V950  M2600,470 V950  M2640,470 V950  M2680,470 V950  M2720,470 V950  M2760,470 V950  M2800,470 V950  M2840,470 V950  M2880,470 V950  M2920,470 V950  M2960,470 V950  M3000,470 V950  M3040,470 V950  M3080,470 V950  M3120,470 V950  M3160,470 V950  M3200,470 V950  M3240,470 V950  M3280,470 V950  M3320,470 V950  M3360,470 V950  M3400,470 V950  M3440,470 V950  M3480,470 V950  M3520,470 V950  M3560,470 V950  M3600,470 V950  M3640,470 V950  M3680,470 V950  M3720,470 V950  M3760,470 V950  M80,500 H3800  M80,530 H3800  M80,560 H3800  M80,590 H3800  M80,620 H3800  M80,650 H3800  M80,680 H3800  M80,710 H3800  M80,740 H3800  M80,770 H3800  M80,800 H3800  M80,830 H3800  M80,860 H3800  M80,890 H3800  M80,920 H3800  "/>
<path d="M80,960 H3800 V1440 H80 V960 Z  M120,960 V1440  M160,960 V1440  M200,960 V1440  M240,960 V1440  M280,960 V1440  M320,960 V1440  M360,960 V1440  M400,960 V1440  M440,960 V1440  M480,960 V1440  M520,960 V1440  M560,960 V1440  M600,960 V1440  M640,960 V1440  M680,960 V1440  M720,960 V1440  M760,960 V1440  M800,960 V1440  M840,960 V1440  M880,960 V1440  M920,960 V1440  M960,960 V1440  M1000,960 V1440  M1040,960 V1440  M1080,960 V1440  M1120,960 V1440  M1160,960 V1440  M1200,960 V1440  M1240,960 V1440  M1280,960 V1440  M1320,960 V1440  M1360,960 V1440  M1400,960 V1440  M1440,960 V1440  M1480,960 V1440  M1520,960 V1440  M1560,960 V1440  M1600,960 V1440  M1640,960 V1440  M1680,960 V1440  M1720,960 V1440  M1760,960 V1440  M1800,960 V1440  M1840,960 V1440  M1880,960 V1440  M1920,960 V1440  M1960,960 V1440  M2000,960 V1440  M2040,960 V1440  M2080,960 V1440  M2120,960 V1440  M2160,960 V1440  M2200,960 V1440  M2240,960 V1440  M2280,960 V1440  M2320,960 V1440  M2360,960 V1440  M2400,960 V1440  M2440,960 V1440  M2480,960 V1440  M2520,960 V1440  M2560,960 V1440  M2600,960 V1440  M2640,960 V1440  M2680,960 V1440  M2720,960 V1440  M2760,960 V1440  M2800,960 V1440  M2840,960 V1440  M2880,960 V1440  M2920,960 V1440  M2960,960 V1440  M3000,960 V1440  M3040,960 V1440  M3080,960 V1440  M3120,960 V1440  M3160,960 V1440  M3200,960 V1440  M3240,960 V1440  M3280,960 V1440  M3320,960 V1440  M3360,960 V1440  M3400,960 V1440  M3440,960 V1440  M3480,960 V1440  M3520,960 V1440  M3560,960 V1440  M3600,960 V1440  M3640,960 V1440  M3680,960 V1440  M3720,960 V1440  M3760,960 V1440  M80,990 H3800  M80,1020 H3800  M80,1050 H3800  M80,1080 H3800  M80,1110 H3800  M80,1140 H3800  M80,1170 H3800  M80,1200 H3800  M80,1230 H3800  M80,1260 H3800  M80,1290 H3800  M80,1320 H3800  M80,1350 H3800  M80,1380 H3800  M80,1410 H3800  "/>
<path d="M80,1450 H3800 V1930 H80 V1450 Z  M120,1450 V1930  M160,1450 V1930  M200,1450 V1930  M240,1450 V1930  M280,1450 V1930  M320,1450 V1930  M360,1450 V1930  M400,1450 V1930  M440,1450 V1930  M480,1450 V1930  M520,1450 V1930  M560,1450 V1930  M600,1450 V1930  M640,1450 V1930  M680,1450 V1930  M720,1450 V1930  M760,1450 V1930  M800,1450 V1930  M840,1450 V1930  M880,1450 V1930  M920,1450 V1930  M960,1450 V1930  M1000,1450 V1930  M1040,1450 V1930  M1080,1450 V1930  M1120,1450 V1930  M1160,1450 V1930  M1200,1450 V1930  M1240,1450 V1930  M1280,1450 V1930  M1320,1450 V1930  M1360,1450 V1930  M1400,1450 V1930  M1440,1450 V1930  M1480,1450 V1930  M1520,1450 V1930  M1560,1450 V1930  M1600,1450 V1930  M1640,1450 V1930  M1680,1450 V1930  M1720,1450 V1930  M1760,1450 V1930  M1800,1450 V1930  M1840,1450 V1930  M1880,1450 V1930  M1920,1450 V1930  M1960,1450 V1930  M2000,1450 V1930  M2040,1450 V1930  M2080,1450 V1930  M2120,1450 V1930  M2160,1450 V1930  M2200,1450 V1930  M2240,1450 V1930  M2280,1450 V1930  M2320,1450 V1930  M2360,1450 V1930  M2400,1450 V1930  M2440,1450 V1930  M2480,1450 V1930  M2520,1450 V1930  M2560,1450 V1930  M2600,1450 V1930  M2640,1450 V1930  M2680,1450 V1930  M2720,1450 V1930  M2760,1450 V1930  M2800,1450 V1930  M2840,1450 V1930  M2880,1450 V1930  M2920,1450 V1930  M2960,1450 V1930  M3000,1450 V1930  M3040,1450 V1930  M3080,1450 V1930  M3120,1450 V1930  M3160,1450 V1930  M3200,1450 V1930  M3240,1450 V1930  M3280,1450 V1930  M3320,1450 V1930  M3360,1450 V1930  M3400,1450 V1930  M3440,1450 V1930  M3480,1450 V1930  M3520,1450 V1930  M3560,1450 V1930  M3600,1450 V1930  M3640,1450 V1930  M3680,1450 V1930  M3720,1450 V1930  M3760,1450 V1930  M80,1480 H3800  M80,1510 H3800  M80,1540 H3800  M80,1570 H3800  M80,1600 H3800  M80,1630 H3800  M80,1660 H3800  M80,1690 H3800  M80,1720 H3800  M80,1750 H3800  M80,1780 H3800  M80,1810 H3800  M80,1840 H3800  M80,1870 H3800  M80,1900 H3800  "/>
<path d="M80,1940 H3800 V2420 H80 V1940 Z  M120,1940 V2420  M160,1940 V2420  M200,1940 V2420  M240,1940 V2420  M280,1940 V2420  M320,1940 V2420  M360,1940 V2420  M400,1940 V2420  M440,1940 V2420  M480,1940 V2420  M520,1940 V2420  M560,1940 V2420  M600,1940 V2420  M640,1940 V2420  M680,1940 V2420  M720,1940 V2420  M760,1940 V2420  M800,1940 V2420  M840,1940 V2420  M880,1940 V2420  M920,1940 V2420  M960,1940 V2420  M1000,1940 V2420  M1040,1940 V2420  M1080,1940 V2420  M1120,1940 V2420  M1160,1940 V2420  M1200,1940 V2420  M1240,1940 V2420  M1280,1940 V2420  M1320,1940 V2420  M1360,1940 V2420  M1400,1940 V2420  M1440,1940 V2420  M1480,1940 V2420  M1520,1940 V2420  M1560,1940 V2420  M1600,1940 V2420  M1640,1940 V2420  M1680,1940 V2420  M1720,1940 V2420  M1760,1940 V2420  M1800,1940 V2420  M1840,1940 V2420  M1880,1940 V2420  M1920,1940 V2420  M1960,1940 V2420  M2000,1940 V2420  M2040,1940 V2420  M2080,1940 V2420  M2120,1940 V2420  M2160,1940 V2420  M2200,1940 V2420  M2240,1940 V2420  M2280,1940 V2420  M2320,1940 V2420  M2360,1940 V2420  M2400,1940 V2420  M2440,1940 V2420  M2480,1940 V2420  M2520,1940 V2420  M2560,1940 V2420  M2600,1940 V2420  M2640,1940 V2420  M2680,1940 V2420  M2720,1940 V2420  M2760,1940 V2420  M2800,1940 V2420  M2840,1940 V2420  M2880,1940 V2420  M2920,1940 V2420  M2960,1940 V2420  M3000,1940 V2420  M3040,1940 V2420  M3080,1940 V2420  M3120,1940 V2420  M3160,1940 V2420  M3200,1940 V2420  M3240,1940 V2420  M3280,1940 V2420  M3320,1940 V2420  M3360,1940 V2420  M3400,1940 V2420  M3440,1940 V2420  M3480,1940 V2420  M3520,1940 V2420  M3560,1940 V2420  M3600,1940 V2420  M3640,1940 V2420  M3680,1940 V2420  M3720,1940 V2420  M3760,1940 V2420  M80,1970 H3800  M80,2000 H3800  M80,2030 H3800  M80,2060 H3800  M80,2090 H3800  M80,2120 H3800  M80,2150 H3800  M80,2180 H3800  M80,2210 H3800  M80,2240 H3800  M80,2270 H3800  M80,2300 H3800  M80,2330 H3800  M80,2360 H3800  M80,2390 H3800  "/>
<path d="M80,2430 H3800 V2910 H80 V2430 Z  M120,2430 V2910  M160,2430 V2910  M200,2430 V2910  M240,2430 V2910  M280,2430 V2910  M320,2430 V2910  M360,2430 V2910  M400,2430 V2910  M440,2430 V2910  M480,2430 V2910  M520,2430 V2910  M560,2430 V2910  M600,2430 V2910  M640,2430 V2910  M680,2430 V2910  M720,2430 V2910  M760,2430 V2910  M800,2430 V2910  M840,2430 V2910  M880,2430 V2910  M920,2430 V2910  M960,2430 V2910  M1000,2430 V2910  M1040,2430 V2910  M1080,2430 V2910  M1120,2430 V2910  M1160,2430 V2910  M1200,2430 V2910  M1240,2430 V2910  M1280,2430 V2910  M1320,2430 V2910  M1360,2430 V2910  M1400,2430 V2910  M1440,2430 V2910  M1480,2430 V2910  M1520,2430 V2910  M1560,2430 V2910  M1600,2430 V2910  M1640,2430 V2910  M1680,2430 V2910  M1720,2430 V2910  M1760,2430 V2910  M1800,2430 V2910  M1840,2430 V2910  M1880,2430 V2910  M1920,2430 V2910  M1960,2430 V2910  M2000,2430 V2910  M2040,2430 V2910  M2080,2430 V2910  M2120,2430 V2910  M2160,2430 V2910  M2200,2430 V2910  M2240,2430 V2910  M2280,2430 V2910  M2320,2430 V2910  M2360,2430 V2910  M2400,2430 V2910  M2440,2430 V2910  M2480,2430 V2910  M2520,2430 V2910  M2560,2430 V2910  M2600,2430 V2910  M2640,2430 V2910  M2680,2430 V2910  M2720,2430 V2910  M2760,2430 V2910  M2800,2430 V2910  M2840,2430 V2910  M2880,2430 V2910  M2920,2430 V2910  M2960,2430 V2910  M3000,2430 V2910  M3040,2430 V2910  M3080,2430 V2910  M3120,2430 V2910  M3160,2430 V2910  M3200,2430 V2910  M3240,2430 V2910  M3280,2430 V2910  M3320,2430 V2910  M3360,2430 V2910  M3400,2430 V2910  M3440,2430 V2910  M3480,2430 V2910  M3520,2430 V2910  M3560,2430 V2910  M3600,2430 V2910  M3640,2430 V2910  M3680,2430 V2910  M3720,2430 V2910  M3760,2430 V2910  M80,2460 H3800  M80,2490 H3800  M80,2520 H3800  M80,2550 H3800  M80,2580 H3800  M80,2610 H3800  M80,2640 H3800  M80,2670 H3800  M80,2700 H3800  M80,2730 H3800  M80,2760 H3800  M80,2790 H3800  M80,2820 H3800  M80,2850 H3800  M80,2880 H3800  "/>
<path d="M80,2920 H3800 V3400 H80 V2920 Z  M120,2920 V3400  M160,2920 V3400  M200,2920 V3400  M240,2920 V3400  M280,2920 V3400  M320,2920 V3400  M360,2920 V3400  M400,2920 V3400  M440,2920 V3400  M480,2920 V3400  M520,2920 V3400  M560,2920 V3400  M600,2920 V3400  M640,2920 V3400  M680,2920 V3400  M720,2920 V3400  M760,2920 V3400  M800,2920 V3400  M840,2920 V3400  M880,2920 V3400  M920,2920 V3400  M960,2920 V3400  M1000,2920 V3400  M1040,2920 V3400  M1080,2920 V3400  M1120,2920 V3400  M1160,2920 V3400  M1200,2920 V3400  M1240,2920 V3400  M1280,2920 V3400  M1320,2920 V3400  M1360,2920 V3400  M1400,2920 V3400  M1440,2920 V3400  M1480,2920 V3400  M1520,2920 V3400  M1560,2920 V3400  M1600,2920 V3400  M1640,2920 V3400  M1680,2920 V3400  M1720,2920 V3400  M1760,2920 V3400  M1800,2920 V3400  M1840,2920 V3400  M1880,2920 V3400  M1920,2920 V3400  M1960,2920 V3400  M2000,2920 V3400  M2040,2920 V3400  M2080,2920 V3400  M2120,2920 V3400  M2160,2920 V3400  M2200,2920 V3400  M2240,2920 V3400  M2280,2920 V3400  M2320,2920 V3400  M2360,2920 V3400  M2400,2920 V3400  M2440,2920 V3400  M2480,2920 V3400  M2520,2920 V3400  M2560,2920 V3400  M2600,2920 V3400  M2640,2920 V3400  M2680,2920 V3400  M2720,2920 V3400  M2760,2920 V3400  M2800,2920 V3400  M2840,2920 V3400  M2880,2920 V3400  M2920,2920 V3400  M2960,2920 V3400  M3000,2920 V3400  M3040,2920 V3400  M3080,2920 V3400  M3120,2920 V3400  M3160,2920 V3400  M3200,2920 V3400  M3240,2920 V3400  M3280,2920 V3400  M3320,2920 V3400  M3360,2920 V3400  M3400,2920 V3400  M3440,2920 V3400  M3480,2920 V3400  M3520,2920 V3400  M3560,2920 V3400  M3600,2920 V3400  M3640,2920 V3400  M3680,2920 V3400  M3720,2920 V3400  M3760,2920 V3400  M80,2950 H3800  M80,2980 H3800  M80,3010 H3800  M80,3040 H3800  M80,3070 H3800  M80,3100 H3800  M80,3130 H3800  M80,3160 H3800  M80,3190 H3800  M80,3220 H3800  M80,3250 H3800  M80,3280 H3800  M80,3310 H3800  M80,3340 H3800  M80,3370 H3800  "/>
<path d="M80,3410 H3800 V3650 H80 V3410 Z  M120,3410 V3650  M160,3410 V3650  M200,3410 V3650  M240,3410 V3650  M280,3410 V3650  M320,3410 V3650  M360,3410 V3650  M400,3410 V3650  M440,3410 V3650  M480,3410 V3650  M520,3410 V3650  M560,3410 V3650  M600,3410 V3650  M640,3410 V3650  M680,3410 V3650  M720,3410 V3650  M760,3410 V3650  M800,3410 V3650  M840,3410 V3650  M880,3410 V3650  M920,3410 V3650  M960,3410 V3650  M1000,3410 V3650  M1040,3410 V3650  M1080,3410 V3650  M1120,3410 V3650  M1160,3410 V3650  M1200,3410 V3650  M1240,3410 V3650  M1280,3410 V3650  M1320,3410 V3650  M1360,3410 V3650  M1400,3410 V3650  M1440,3410 V3650  M1480,3410 V3650  M1520,3410 V3650  M1560,3410 V3650  M1600,3410 V3650  M1640,3410 V3650  M1680,3410 V3650  M1720,3410 V3650  M1760,3410 V3650  M1800,3410 V3650  M1840,3410 V3650  M1880,3410 V3650  M1920,3410 V3650  M1960,3410 V3650  M2000,3410 V3650  M2040,3410 V3650  M2080,3410 V3650  M2120,3410 V3650  M2160,3410 V3650  M2200,3410 V3650  M2240,3410 V3650  M2280,3410 V3650  M2320,3410 V3650  M2360,3410 V3650  M2400,3410 V3650  M2440,3410 V3650  M2480,3410 V3650  M2520,3410 V3650  M2560,3410 V3650  M2600,3410 V3650  M2640,3410 V3650  M2680,3410 V3650  M2720,3410 V3650  M2760,3410 V3650  M2800,3410 V3650  M2840,3410 V3650  M2880,3410 V3650  M2920,3410 V3650  M2960,3410 V3650  M3000,3410 V3650  M3040,3410 V3650  M3080,3410 V3650  M3120,3410 V3650  M3160,3410 V3650  M3200,3410 V3650  M3240,3410 V3650  M3280,3410 V3650  M3320,3410 V3650  M3360,3410 V3650  M3400,3410 V3650  M3440,3410 V3650  M3480,3410 V3650  M3520,3410 V3650  M3560,3410 V3650  M3600,3410 V3650  M3640,3410 V3650  M3680,3410 V3650  M3720,3410 V3650  M3760,3410 V3650  M80,3440 H3800  M80,3470 H3800  M80,3500 H3800  M80,3530 H3800  M80,3560 H3800  M80,3590 H3800  M80,3620 H3800  "/>
<polygon class="project" points="83,143 83,197 197,197 197,83 163,83 163,143 "/>
<text class="project-text" id="project_001_0" x="140" y="170">
Project1
</text>
<rect class="project" height="54" width="154" x="203" y="113"/>
<text class="project-text" id="project_002_0" x="280" y="140">
Project2
</text>
<polygon class="project" points="203,173 203,197 437,197 437,107 557,107 557,83 363,83 363,173 "/>
<text class="project-text" id="project_003_0" x="320" y="185">
Project3
</text>
</svg>